<svg width="200" height="200" viewBox="0 0 200 200" fill="none" xmlns="http://www.w3.org/2000/svg">
<circle cx="100" cy="100" r="100" fill="#FF4A1C"/>
<path d="M185.527 101.696L184.964 109.356L183.139 109.222L183.554 103.577L179.41 103.273L179.024 108.538L177.256 108.408L177.642 103.143L172.073 102.734L172.221 100.719L185.527 101.696Z" fill="#FEFEFE"/>
<path d="M170.376 114.652C170.643 113.514 171.154 112.727 171.909 112.291C172.673 111.87 173.643 111.797 174.818 112.073L180.997 113.522L180.566 115.359L174.74 113.992C173.997 113.818 173.391 113.846 172.919 114.074C172.445 114.316 172.122 114.801 171.951 115.531L171.938 115.587C171.741 116.428 171.829 117.166 172.202 117.802C172.584 118.453 173.214 118.881 174.093 119.087L179.399 120.332L178.968 122.169L169.32 119.906L169.659 118.458C169.85 118.425 170.087 118.415 170.371 118.429C170.654 118.444 170.904 118.463 171.12 118.488C170.734 117.966 170.466 117.382 170.318 116.733C170.183 116.088 170.197 115.413 170.363 114.708L170.376 114.652Z" fill="#FEFEFE"/>
<path d="M181.021 128.075L180.358 129.842L167.51 125.021L168.173 123.254L181.021 128.075Z" fill="#FEFEFE"/>
<path d="M178.16 135.201L177.342 136.901L164.977 130.95L165.795 129.25L178.16 135.201Z" fill="#FEFEFE"/>
<path d="M168.149 145.64L167.24 146.817C167.06 146.758 166.849 146.667 166.607 146.544C166.357 146.431 166.139 146.319 165.952 146.207C166.078 146.834 166.06 147.47 165.898 148.116C165.746 148.769 165.445 149.388 164.994 149.971L164.947 150.031C164.528 150.574 164.039 150.999 163.48 151.306C162.932 151.621 162.353 151.808 161.745 151.868C161.139 151.945 160.516 151.889 159.876 151.699C159.245 151.517 158.639 151.201 158.056 150.75L157.905 150.634C157.322 150.183 156.858 149.672 156.513 149.1C156.178 148.536 155.967 147.947 155.879 147.333C155.794 146.737 155.829 146.13 155.986 145.513C156.152 144.902 156.445 144.326 156.865 143.783L156.912 143.723C157.347 143.16 157.848 142.72 158.414 142.403C158.972 142.096 159.561 141.916 160.179 141.864L156.138 138.74L157.292 137.248L168.149 145.64ZM158.363 144.556C157.788 145.3 157.571 146.08 157.712 146.895C157.845 147.72 158.318 148.448 159.132 149.077L159.253 149.17C160.067 149.8 160.891 150.075 161.723 149.996C162.547 149.926 163.247 149.52 163.822 148.776L163.892 148.685C164.467 147.941 164.688 147.157 164.555 146.331C164.422 145.506 163.949 144.779 163.135 144.149L163.014 144.056C162.2 143.426 161.377 143.151 160.544 143.231C159.712 143.31 159.008 143.722 158.433 144.466L158.363 144.556Z" fill="#FEFEFE"/>
<path d="M148.866 152.547C149.421 152.043 150.01 151.67 150.633 151.43C151.264 151.199 151.899 151.094 152.536 151.115C153.165 151.145 153.778 151.3 154.376 151.58C154.975 151.86 155.522 152.273 156.018 152.818L156.146 152.959C156.642 153.504 157.001 154.088 157.224 154.71C157.446 155.332 157.542 155.957 157.513 156.585C157.474 157.222 157.305 157.839 157.007 158.437C156.717 159.044 156.295 159.599 155.741 160.104L155.656 160.181C155.102 160.685 154.509 161.053 153.877 161.284C153.254 161.524 152.629 161.63 152 161.6C151.372 161.57 150.759 161.415 150.16 161.135C149.562 160.855 149.015 160.442 148.519 159.897L148.391 159.756C147.895 159.211 147.536 158.628 147.313 158.005C147.091 157.383 146.994 156.758 147.024 156.13C147.054 155.502 147.213 154.884 147.503 154.277C147.801 153.68 148.227 153.129 148.782 152.624L148.866 152.547ZM149.913 153.811C149.565 154.127 149.306 154.475 149.135 154.853C148.955 155.241 148.86 155.636 148.85 156.041C148.848 156.454 148.932 156.868 149.101 157.28C149.271 157.693 149.522 158.083 149.856 158.449L149.958 158.562C150.292 158.929 150.656 159.216 151.051 159.423C151.446 159.631 151.845 159.749 152.248 159.777C152.66 159.814 153.068 159.762 153.47 159.619C153.863 159.484 154.234 159.259 154.581 158.943L154.624 158.904C154.962 158.596 155.221 158.249 155.402 157.862C155.572 157.483 155.659 157.087 155.66 156.673C155.67 156.269 155.591 155.86 155.421 155.447C155.252 155.035 155.001 154.645 154.667 154.278L154.564 154.166C154.231 153.799 153.867 153.512 153.472 153.305C153.077 153.097 152.673 152.974 152.261 152.937C151.858 152.909 151.46 152.962 151.067 153.096C150.664 153.239 150.294 153.465 149.955 153.772L149.913 153.811Z" fill="#FEFEFE"/>
<path d="M147.916 166.387L146.667 167.228C146.515 167.116 146.347 166.968 146.163 166.786C145.979 166.603 145.813 166.424 145.664 166.249C145.589 166.82 145.397 167.355 145.089 167.853C144.771 168.358 144.327 168.803 143.758 169.186L143.615 169.281L142.562 167.716C142.734 167.676 142.894 167.607 143.042 167.508C143.78 167.011 144.207 166.417 144.324 165.726C144.448 165.045 144.265 164.341 143.776 163.614L140.818 159.218L142.383 158.165L147.916 166.387Z" fill="#FEFEFE"/>
<path d="M132.598 164.046C133.377 163.643 134.113 163.504 134.808 163.63C135.498 163.774 136.08 164.302 136.554 165.216L139.088 170.106L140.256 169.501L140.861 170.668C140.721 170.813 140.561 170.96 140.382 171.11C140.191 171.266 140.005 171.405 139.825 171.527L140.886 173.575L139.325 174.663L138.159 172.413L135.299 173.895L134.554 172.457L137.413 170.974L135.036 166.389C134.773 165.881 134.473 165.593 134.137 165.524C133.801 165.455 133.418 165.531 132.99 165.754C132.877 165.812 132.75 165.885 132.609 165.972C132.468 166.06 132.328 166.147 132.187 166.234C132.041 166.339 131.906 166.437 131.782 166.53C131.647 166.629 131.54 166.712 131.462 166.782L130.742 165.394C130.832 165.291 130.949 165.172 131.095 165.04C131.236 164.924 131.393 164.799 131.567 164.666C131.736 164.55 131.913 164.437 132.099 164.326C132.274 164.221 132.44 164.128 132.598 164.046Z" fill="#FEFEFE"/>
<path d="M130.888 174.097L131.975 173.685L132.421 174.861C132.289 174.979 132.137 175.098 131.965 175.217C131.786 175.353 131.612 175.467 131.442 175.558L131.699 176.235C132.051 177.162 132.08 177.973 131.787 178.669C131.494 179.365 130.926 179.872 130.082 180.193C129.785 180.305 129.453 180.397 129.086 180.469C128.707 180.544 128.376 180.568 128.094 180.539L127.532 179.06C128.072 179.087 128.592 179.005 129.091 178.816C129.566 178.635 129.879 178.387 130.031 178.071C130.171 177.76 130.138 177.331 129.93 176.785L129.727 176.25L126.965 177.298L126.397 175.801L129.124 174.767L126.189 167.033L127.953 166.364L130.888 174.097Z" fill="#FEFEFE"/>
<path d="M116.064 170.025C116.796 169.862 117.492 169.831 118.152 169.931C118.815 170.044 119.418 170.268 119.961 170.602C120.492 170.94 120.948 171.379 121.328 171.919C121.709 172.459 121.979 173.089 122.139 173.808L122.181 173.994C122.341 174.713 122.363 175.398 122.248 176.049C122.132 176.699 121.906 177.29 121.568 177.821C121.218 178.354 120.766 178.806 120.21 179.177C119.658 179.561 119.016 179.834 118.284 179.997L118.172 180.021C117.441 180.184 116.743 180.209 116.08 180.097C115.42 179.996 114.825 179.777 114.294 179.44C113.763 179.102 113.308 178.664 112.927 178.123C112.546 177.583 112.276 176.954 112.116 176.234L112.075 176.048C111.914 175.329 111.892 174.644 112.008 173.993C112.123 173.343 112.35 172.752 112.687 172.221C113.025 171.691 113.47 171.234 114.022 170.85C114.578 170.479 115.221 170.213 115.953 170.05L116.064 170.025ZM116.346 171.641C115.887 171.744 115.49 171.917 115.153 172.161C114.805 172.407 114.526 172.704 114.317 173.05C114.11 173.408 113.978 173.809 113.92 174.251C113.862 174.693 113.887 175.157 113.995 175.64L114.028 175.789C114.136 176.273 114.31 176.703 114.549 177.079C114.789 177.455 115.078 177.755 115.414 177.98C115.753 178.217 116.133 178.373 116.553 178.449C116.961 178.527 117.394 178.515 117.853 178.413L117.909 178.401C118.356 178.301 118.753 178.128 119.102 177.881C119.438 177.637 119.709 177.336 119.916 176.978C120.125 176.632 120.259 176.238 120.317 175.795C120.374 175.353 120.349 174.89 120.242 174.406L120.209 174.257C120.101 173.774 119.927 173.344 119.687 172.967C119.447 172.591 119.158 172.285 118.819 172.048C118.482 171.823 118.11 171.672 117.702 171.593C117.282 171.518 116.848 171.53 116.402 171.629L116.346 171.641Z" fill="#FEFEFE"/>
<path d="M108.754 185.313L106.874 185.473L105.711 171.8L107.591 171.64L108.754 185.313Z" fill="#FEFEFE"/>
<path d="M99.8509 183.702C100.194 183.705 100.473 183.809 100.687 184.014C100.902 184.219 101.008 184.486 101.005 184.817C101.003 185.134 100.892 185.4 100.675 185.615C100.457 185.829 100.177 185.935 99.8337 185.932C99.4907 185.93 99.212 185.819 98.9976 185.602C98.7706 185.384 98.6583 185.116 98.6608 184.799C98.6633 184.468 98.7797 184.202 99.01 184.001C99.2276 183.799 99.5079 183.7 99.8509 183.702ZM100.798 181.975L98.9114 181.961L98.9879 172.05L100.875 172.065L100.798 181.975Z" fill="#FEFEFE"/>
<path d="M90.2942 171.312C91.0367 171.415 91.6995 171.63 92.2828 171.955C92.8643 172.293 93.3508 172.713 93.7424 173.217C94.1213 173.719 94.3945 174.289 94.5619 174.929C94.7293 175.568 94.762 176.252 94.6602 176.982L94.6338 177.171C94.5319 177.901 94.313 178.55 93.977 179.119C93.641 179.688 93.2221 180.162 92.7201 180.541C92.2056 180.918 91.6234 181.183 90.9734 181.336C90.3216 181.502 89.6245 181.533 88.8821 181.429L88.7688 181.413C88.0263 181.31 87.3644 181.089 86.7829 180.751C86.1996 180.426 85.7185 180.013 85.3395 179.511C84.9606 179.009 84.6874 178.438 84.52 177.799C84.3526 177.16 84.3199 176.475 84.4218 175.746L84.4481 175.557C84.55 174.827 84.7689 174.178 85.1049 173.609C85.4409 173.04 85.8598 172.566 86.3618 172.187C86.8637 171.808 87.4405 171.536 88.0923 171.37C88.7423 171.217 89.4385 171.192 90.181 171.296L90.2942 171.312ZM89.9921 172.924C89.5265 172.859 89.0935 172.882 88.6932 172.993C88.2802 173.102 87.9151 173.282 87.5979 173.533C87.2789 173.797 87.0149 174.125 86.8059 174.52C86.597 174.914 86.4582 175.356 86.3897 175.847L86.3686 175.998C86.3001 176.489 86.3124 176.952 86.4055 177.389C86.4985 177.825 86.6633 178.207 86.8997 178.535C87.1344 178.876 87.4354 179.155 87.8027 179.373C88.1574 179.59 88.5675 179.73 89.0331 179.795L89.0898 179.803C89.5428 179.867 89.9758 179.844 90.3887 179.734C90.7891 179.624 91.1488 179.436 91.4678 179.173C91.785 178.922 92.0481 178.6 92.2571 178.206C92.4661 177.811 92.6048 177.369 92.6733 176.878L92.6944 176.727C92.7629 176.236 92.7506 175.773 92.6576 175.336C92.5645 174.9 92.4006 174.511 92.1659 174.171C91.9295 173.843 91.6339 173.571 91.2792 173.354C90.9119 173.136 90.5018 172.996 90.0488 172.932L89.9921 172.924Z" fill="#FEFEFE"/>
<path d="M53.9049 172.351L47.612 167.947L48.6611 166.448L53.2988 169.694L55.6811 166.29L51.3557 163.263L52.3721 161.811L56.6974 164.838L59.8994 160.262L61.5546 161.421L53.9049 172.351Z" fill="#FEFEFE"/>
<path d="M50.5003 152.677C51.3418 153.489 51.757 154.33 51.7458 155.202C51.7168 156.074 51.2833 156.945 50.4454 157.814L46.0398 162.382L44.6816 161.073L48.8358 156.765C49.365 156.216 49.6518 155.681 49.6962 155.159C49.7315 154.628 49.4793 154.102 48.9397 153.582L48.8985 153.542C48.2766 152.942 47.5971 152.64 46.8602 152.636C46.1053 152.631 45.4147 152.954 44.7885 153.603L41.0048 157.527L39.6465 156.217L46.5261 149.083L47.5962 150.115C47.5276 150.296 47.4146 150.505 47.2571 150.741C47.0997 150.978 46.9551 151.183 46.8235 151.356C47.4693 151.29 48.1085 151.359 48.7413 151.564C49.3652 151.777 49.9378 152.135 50.4592 152.638L50.5003 152.677Z" fill="#FEFEFE"/>
<path d="M33.6408 155.105L32.4544 153.638L43.1252 145.01L44.3116 146.477L33.6408 155.105Z" fill="#FEFEFE"/>
<path d="M28.9167 148.969L27.869 147.4L39.282 139.78L40.3296 141.349L28.9167 148.969Z" fill="#FEFEFE"/>
<path d="M25.0871 135.192L24.5337 133.812C24.6751 133.687 24.8602 133.551 25.089 133.404C25.313 133.246 25.5205 133.115 25.7115 133.011C25.1073 132.802 24.5678 132.463 24.0931 131.997C23.6066 131.535 23.2262 130.962 22.9519 130.278L22.9235 130.207C22.6681 129.57 22.5495 128.933 22.5678 128.296C22.5742 127.664 22.7058 127.07 22.9625 126.516C23.2026 125.954 23.5667 125.445 24.0546 124.989C24.5308 124.538 25.1109 124.175 25.7949 123.901L25.9718 123.83C26.6558 123.556 27.3316 123.415 27.9994 123.407C28.6553 123.404 29.27 123.52 29.8436 123.756C30.4007 123.984 30.9059 124.322 31.3594 124.77C31.801 125.222 32.1496 125.767 32.405 126.404L32.4334 126.475C32.6982 127.135 32.8239 127.79 32.8104 128.439C32.7921 129.076 32.6487 129.674 32.3803 130.233L37.121 128.332L37.8234 130.083L25.0871 135.192ZM30.9795 127.304C30.6295 126.432 30.0674 125.849 29.2932 125.558C28.5143 125.254 27.6472 125.294 26.692 125.677L26.5505 125.734C25.5953 126.117 24.941 126.687 24.5878 127.445C24.2299 128.191 24.226 129 24.576 129.873L24.6186 129.979C24.9686 130.852 25.5331 131.44 26.312 131.743C27.0909 132.047 27.9579 132.007 28.9132 131.624L29.0547 131.567C30.0099 131.184 30.6641 130.614 31.0173 129.856C31.3705 129.098 31.3721 128.283 31.0221 127.41L30.9795 127.304Z" fill="#FEFEFE"/>
<path d="M28.9371 115.141C29.0888 115.875 29.1094 116.572 28.9989 117.23C28.8761 117.891 28.6431 118.491 28.3002 119.029C27.9546 119.554 27.509 120.003 26.9631 120.376C26.4172 120.748 25.7834 121.009 25.0617 121.158L24.8751 121.196C24.1534 121.345 23.4682 121.357 22.8195 121.232C22.1708 121.106 21.5837 120.871 21.0582 120.525C20.5301 120.167 20.0849 119.708 19.7225 119.147C19.3476 118.589 19.0843 117.942 18.9326 117.208L18.9095 117.096C18.7578 116.362 18.7434 115.665 18.8663 115.003C18.9767 114.345 19.2047 113.753 19.5503 113.227C19.8958 112.702 20.3415 112.253 20.8873 111.881C21.4332 111.508 22.067 111.248 22.7887 111.099L22.9754 111.06C23.6971 110.911 24.3823 110.899 25.031 111.024C25.6797 111.15 26.2668 111.385 26.7923 111.731C27.3178 112.076 27.7679 112.528 28.1428 113.087C28.5052 113.648 28.7622 114.295 28.9139 115.029L28.9371 115.141ZM27.3165 115.398C27.2213 114.938 27.0543 114.538 26.8154 114.198C26.574 113.845 26.2819 113.562 25.9391 113.347C25.5839 113.135 25.1855 112.997 24.7441 112.933C24.3026 112.868 23.8392 112.886 23.3539 112.986L23.2046 113.017C22.7193 113.117 22.2868 113.285 21.907 113.519C21.5272 113.753 21.2225 114.037 20.9929 114.369C20.7508 114.705 20.5887 115.082 20.5067 115.501C20.422 115.908 20.4273 116.342 20.5224 116.802L20.534 116.858C20.6265 117.306 20.7935 117.706 21.035 118.058C21.2739 118.398 21.571 118.674 21.9262 118.886C22.2689 119.101 22.661 119.24 23.1025 119.305C23.544 119.369 24.0074 119.352 24.4927 119.251L24.642 119.22C25.1273 119.12 25.5598 118.953 25.9396 118.719C26.3194 118.485 26.6303 118.2 26.8724 117.864C27.102 117.531 27.2591 117.162 27.3438 116.755C27.4258 116.336 27.4206 115.902 27.328 115.454L27.3165 115.398Z" fill="#FEFEFE"/>
<path d="M17.506 107.311L17.4189 105.808C17.5928 105.734 17.8052 105.665 18.0559 105.599C18.3067 105.534 18.5455 105.482 18.7723 105.443C18.319 105.087 17.9564 104.65 17.6845 104.131C17.4119 103.6 17.2557 102.992 17.2161 102.307L17.2061 102.136L19.0898 102.026C19.036 102.195 19.0142 102.368 19.0245 102.546C19.0759 103.434 19.3693 104.104 19.9046 104.556C20.4273 105.01 21.1262 105.211 22.0015 105.16L27.2911 104.854L27.4002 106.738L17.506 107.311Z" fill="#FEFEFE"/>
<path d="M27.3194 95.08C27.2687 95.9553 27.0115 96.6595 26.5479 97.1926C26.0723 97.7123 25.3208 97.9424 24.2933 97.8829L18.7944 97.5643L18.7183 98.8772L17.4055 98.8011C17.3531 98.6072 17.3081 98.3945 17.2706 98.1633C17.2338 97.9193 17.209 97.6888 17.1961 97.4717L14.8938 97.3383L14.7556 95.4402L17.2862 95.5869L17.4725 92.3713L19.0899 92.465L18.9036 95.6806L24.06 95.9793C24.6308 96.0124 25.0317 95.902 25.2628 95.6481C25.4939 95.3942 25.6234 95.0263 25.6513 94.5443C25.6587 94.4174 25.6608 94.2712 25.6576 94.1055C25.6545 93.9399 25.6514 93.7743 25.6482 93.6086C25.6332 93.4296 25.6174 93.2632 25.6008 93.1095C25.585 92.9431 25.5673 92.8085 25.5478 92.7055L27.1081 92.7959C27.1515 92.9257 27.193 93.0872 27.2327 93.2804C27.2605 93.4602 27.2872 93.659 27.3127 93.8769C27.3263 94.0813 27.3332 94.2917 27.3334 94.5081C27.3344 94.7118 27.3297 94.9024 27.3194 95.08Z" fill="#FEFEFE"/>
<path d="M19.5538 88.3625L19.3535 89.5077L18.1144 89.291C18.0803 89.1173 18.0557 88.926 18.0407 88.717C18.0153 88.4932 18.0065 88.2853 18.0143 88.0932L17.3009 87.9684C16.3247 87.7976 15.6123 87.4086 15.1639 86.8013C14.7155 86.194 14.569 85.446 14.7244 84.5574C14.7791 84.2445 14.8695 83.912 14.9956 83.56C15.1239 83.1955 15.2725 82.899 15.4414 82.6705L16.9997 82.9431C16.7015 83.394 16.5065 83.8823 16.4145 84.408C16.3269 84.9086 16.3802 85.3049 16.5742 85.5968C16.7704 85.8763 17.1564 86.0663 17.7321 86.167L18.2953 86.2655L18.8044 83.3556L20.3814 83.6314L19.8789 86.5039L28.0269 87.9291L27.7018 89.7878L19.5538 88.3625Z" fill="#FEFEFE"/>
<path d="M30.6505 77.575C30.4137 78.2863 30.0825 78.8992 29.6567 79.4137C29.219 79.9241 28.7169 80.3261 28.1505 80.6197C27.588 80.9012 26.9774 81.0661 26.3184 81.1146C25.6595 81.1631 24.9804 81.0709 24.2812 80.8382L24.1003 80.778C23.4011 80.5452 22.8023 80.2119 22.3039 79.7782C21.8055 79.3444 21.4155 78.8463 21.134 78.2839C20.8566 77.7095 20.7016 77.0887 20.6692 76.4218C20.6248 75.7508 20.7209 75.0596 20.9577 74.3483L20.9938 74.2398C21.2306 73.5285 21.5679 72.9177 22.0057 72.4072C22.4314 71.8927 22.9254 71.4948 23.4878 71.2133C24.0503 70.9318 24.6609 70.7668 25.3199 70.7183C25.9788 70.6699 26.6579 70.762 27.3571 70.9948L27.538 71.055C28.2372 71.2877 28.836 71.621 29.3344 72.0548C29.8328 72.4885 30.2228 72.9866 30.5043 73.549C30.7857 74.1114 30.9487 74.7281 30.9932 75.3991C31.0256 76.0661 30.9234 76.7552 30.6866 77.4665L30.6505 77.575ZM29.1194 76.985C29.2679 76.5389 29.324 76.109 29.2876 75.6951C29.2553 75.2692 29.1447 74.8775 28.9557 74.52C28.7546 74.1584 28.4793 73.8391 28.1296 73.562C27.7799 73.2849 27.37 73.0681 26.8998 72.9116L26.7552 72.8634C26.285 72.7069 25.8269 72.6347 25.3809 72.647C24.9349 72.6592 24.5291 72.7518 24.1635 72.9247C23.7859 73.0936 23.4565 73.3388 23.1754 73.6604C22.8983 73.9699 22.6855 74.3477 22.537 74.7937L22.5189 74.848C22.3744 75.282 22.3184 75.7119 22.3507 76.1378C22.387 76.5517 22.5057 76.9394 22.7067 77.3009C22.8957 77.6584 23.165 77.9758 23.5147 78.2529C23.8644 78.53 24.2743 78.7468 24.7445 78.9033L24.8892 78.9515C25.3593 79.108 25.8174 79.1801 26.2634 79.1679C26.7094 79.1557 27.1212 79.0651 27.4989 78.8962C27.8644 78.7233 28.1858 78.4821 28.4629 78.1726C28.744 77.851 28.9568 77.4732 29.1013 77.0392L29.1194 76.985Z" fill="#FEFEFE"/>
<path d="M21.1233 63.7475L21.9479 62.0503L34.2908 68.0472L33.4662 69.7444L21.1233 63.7475Z" fill="#FEFEFE"/>
<path d="M26.8585 57.2283C26.6818 57.5224 26.4507 57.7097 26.1652 57.7902C25.8797 57.8706 25.5954 57.8258 25.3122 57.6557C25.0399 57.4921 24.8668 57.2621 24.7928 56.9657C24.7189 56.6693 24.7703 56.3741 24.9469 56.08C25.1236 55.7859 25.3601 55.6019 25.6565 55.528C25.9595 55.4432 26.2471 55.4825 26.5194 55.6461C26.8026 55.8162 26.9724 56.0517 27.0289 56.3524C27.0919 56.6423 27.0351 56.9342 26.8585 57.2283ZM27.8643 58.922L28.836 57.3045L37.3317 62.408L36.3601 64.0255L27.8643 58.922Z" fill="#FEFEFE"/>
<path d="M42.5574 55.0465C42.0882 55.6312 41.5646 56.0907 40.9866 56.4252C40.3988 56.7517 39.7882 56.9541 39.1551 57.0325C38.5299 57.101 37.9 57.0435 37.2653 56.8599C36.6306 56.6763 36.0258 56.3539 35.4511 55.8927L35.3024 55.7734C34.7277 55.3121 34.282 54.7915 33.9654 54.2116C33.6488 53.6316 33.4563 53.0291 33.3878 52.4039C33.3273 51.7688 33.3978 51.1329 33.5992 50.4962C33.7907 49.8516 34.1211 49.237 34.5903 48.6523L34.6619 48.5631C35.1311 47.9785 35.6596 47.5229 36.2475 47.1964C36.8255 46.862 37.4271 46.6605 38.0523 46.592C38.6775 46.5235 39.3074 46.5811 39.9421 46.7646C40.5768 46.9482 41.1815 47.2706 41.7563 47.7319L41.9049 47.8512C42.4797 48.3125 42.9253 48.8331 43.2419 49.413C43.5585 49.9929 43.7511 50.5955 43.8195 51.2207C43.888 51.8458 43.8265 52.4808 43.635 53.1254C43.4336 53.762 43.0982 54.3727 42.629 54.9574L42.5574 55.0465ZM41.3268 53.9611C41.6211 53.5945 41.8231 53.2108 41.9329 52.8102C42.0506 52.3996 42.083 51.9938 42.03 51.5929C41.9672 51.184 41.82 50.7889 41.5884 50.4075C41.3568 50.0262 41.0478 49.6804 40.6613 49.3703L40.5424 49.2748C40.156 48.9647 39.7515 48.7378 39.3291 48.5943C38.9066 48.4507 38.4939 48.3965 38.0911 48.4316C37.6783 48.4587 37.2842 48.5742 36.9088 48.778C36.5414 48.9719 36.2106 49.2522 35.9163 49.6188L35.8805 49.6634C35.5942 50.0201 35.3922 50.4038 35.2745 50.8144C35.1647 51.2151 35.1413 51.6198 35.2041 52.0287C35.2571 52.4296 35.3993 52.8208 35.6309 53.2021C35.8625 53.5835 36.1715 53.9293 36.558 54.2394L36.6769 54.3349C37.0633 54.645 37.4678 54.8719 37.8903 55.0154C38.3127 55.159 38.7303 55.2172 39.1431 55.19C39.546 55.1549 39.9311 55.0404 40.2985 54.8465C40.6739 54.6427 41.0047 54.3625 41.2911 54.0057L41.3268 53.9611Z" fill="#FEFEFE"/>
<path d="M59.8226 23.3393L66.8043 20.1376L67.567 21.8007L62.4217 24.1603L64.1536 27.937L68.9525 25.7363L69.6913 27.3475L64.8925 29.5482L67.2203 34.6243L65.3839 35.4664L59.8226 23.3393Z" fill="#FEFEFE"/>
<path d="M78.8069 30.239C77.6798 30.549 76.7441 30.4769 75.9998 30.0228C75.2644 29.553 74.7366 28.7361 74.4165 27.5723L72.7332 21.4528L74.5525 20.9524L76.1398 26.7227C76.342 27.4578 76.6562 27.9775 77.0826 28.2819C77.5212 28.583 78.1019 28.6341 78.8247 28.4353L78.8799 28.4201C79.713 28.1909 80.3194 27.7606 80.6991 27.129C81.0878 26.4818 81.1624 25.7233 80.9232 24.8534L79.4775 19.5977L81.2968 19.0973L83.9253 28.6532L82.4919 29.0474C82.3712 28.8961 82.2493 28.6925 82.1262 28.4364C82.003 28.1804 81.9006 27.9516 81.8188 27.7501C81.5459 28.3391 81.1603 28.8536 80.662 29.2938C80.1604 29.7217 79.5604 30.0317 78.8621 30.2238L78.8069 30.239Z" fill="#FEFEFE"/>
<path d="M85.197 14.5046L87.0648 14.2366L89.0138 27.8201L87.1461 28.0881L85.197 14.5046Z" fill="#FEFEFE"/>
<path d="M92.8206 13.5693L94.7047 13.4674L95.4456 27.17L93.5615 27.2719L92.8206 13.5693Z" fill="#FEFEFE"/>
<path d="M107.256 17.31L108.724 17.5437C108.759 17.7293 108.78 17.9579 108.788 18.2294C108.809 18.5029 108.815 18.7483 108.806 18.9656C109.296 18.5547 109.863 18.2655 110.508 18.0978C111.154 17.9176 111.841 17.8855 112.569 18.0013L112.644 18.0133C113.322 18.1212 113.929 18.3465 114.466 18.6894C115.006 19.0196 115.447 19.4373 115.791 19.9424C116.15 20.437 116.4 21.0107 116.54 21.6635C116.683 22.3037 116.696 22.9878 116.58 23.7156L116.55 23.9038C116.435 24.6316 116.209 25.2839 115.872 25.8608C115.538 26.4252 115.123 26.893 114.626 27.2643C114.144 27.625 113.594 27.8849 112.977 28.044C112.362 28.1906 111.716 28.2099 111.038 28.102L110.963 28.09C110.26 27.9782 109.634 27.7498 109.084 27.405C108.547 27.0622 108.107 26.6319 107.765 26.1143L106.962 31.1586L105.099 30.862L107.256 17.31ZM110.998 26.4166C111.926 26.5644 112.714 26.3811 113.362 25.8666C114.023 25.3542 114.434 24.5898 114.596 23.5734L114.62 23.4228C114.782 22.4064 114.628 21.5521 114.159 20.8599C113.703 20.1697 113.011 19.7507 112.082 19.6029L111.969 19.5849C111.041 19.4371 110.246 19.6194 109.586 20.1319C108.925 20.6443 108.514 21.4087 108.352 22.4251L108.328 22.5757C108.166 23.5921 108.32 24.4464 108.789 25.1386C109.257 25.8308 109.956 26.2508 110.885 26.3986L110.998 26.4166Z" fill="#FEFEFE"/>
<path d="M122.594 30.9247C121.887 30.6772 121.279 30.3368 120.771 29.9034C120.267 29.458 119.873 28.9499 119.588 28.3791C119.315 27.8125 119.159 27.1994 119.12 26.5398C119.082 25.8802 119.184 25.2026 119.427 24.5069L119.49 24.327C119.734 23.6314 120.076 23.0377 120.517 22.5458C120.958 22.054 121.462 21.6716 122.029 21.3987C122.607 21.1299 123.23 20.9843 123.898 20.9619C124.569 20.9276 125.259 21.0342 125.967 21.2816L126.074 21.3194C126.782 21.5668 127.388 21.9133 127.892 22.3587C128.4 22.7921 128.79 23.2921 129.063 23.8587C129.336 24.4253 129.492 25.0384 129.53 25.698C129.569 26.3576 129.467 27.0352 129.223 27.7308L129.16 27.9107C128.917 28.6064 128.575 29.2001 128.134 29.6919C127.692 30.1837 127.189 30.5661 126.622 30.8391C126.055 31.1121 125.436 31.2658 124.765 31.3001C124.097 31.3225 123.41 31.2099 122.702 30.9624L122.594 30.9247ZM123.207 29.4027C123.651 29.5578 124.08 29.6204 124.494 29.5903C124.921 29.5644 125.314 29.4597 125.674 29.2761C126.039 29.0805 126.362 28.81 126.645 28.4645C126.927 28.1191 127.15 27.7125 127.314 27.2447L127.364 27.1008C127.528 26.633 127.607 26.1761 127.601 25.7299C127.596 25.2838 127.509 24.8767 127.342 24.5085C127.179 24.1284 126.938 23.7954 126.621 23.5094C126.316 23.2277 125.941 23.0092 125.497 22.854L125.443 22.8351C125.012 22.6841 124.583 22.6216 124.156 22.6475C123.742 22.6776 123.353 22.7904 122.988 22.986C122.628 23.1695 122.306 23.4341 122.024 23.7795C121.742 24.125 121.519 24.5316 121.355 24.9994L121.305 25.1433C121.141 25.6111 121.062 26.068 121.068 26.5141C121.073 26.9603 121.157 27.3734 121.321 27.7535C121.488 28.1217 121.724 28.4466 122.03 28.7284C122.347 29.0143 122.722 29.2328 123.153 29.3838L123.207 29.4027Z" fill="#FEFEFE"/>
<path d="M135.078 25.0837L136.412 25.7815C136.386 25.9686 136.336 26.1865 136.263 26.4352C136.191 26.684 136.113 26.9155 136.029 27.13C136.567 26.9239 137.128 26.8375 137.713 26.8709C138.309 26.9102 138.911 27.0889 139.519 27.4069L139.671 27.4864L138.797 29.1584C138.68 29.0255 138.543 28.9179 138.385 28.8354C137.597 28.4232 136.871 28.3303 136.208 28.5569C135.55 28.7722 135.018 29.2683 134.612 30.0452L132.156 34.7402L130.484 33.8657L135.078 25.0837Z" fill="#FEFEFE"/>
<path d="M140.336 39.6565C139.61 39.1644 139.138 38.5826 138.917 37.9113C138.715 37.2366 138.902 36.4733 139.48 35.6215L142.572 31.063L141.484 30.3249L142.222 29.2365C142.415 29.2909 142.621 29.3613 142.839 29.4476C143.067 29.541 143.278 29.6379 143.471 29.7381L144.765 27.8295L146.466 28.6836L145.043 30.7814L147.709 32.5895L146.799 33.9302L144.133 32.1222L141.234 36.3968C140.913 36.87 140.803 37.2708 140.902 37.5994C141.002 37.9279 141.251 38.2277 141.651 38.4987C141.756 38.57 141.881 38.6468 142.024 38.729C142.168 38.8112 142.312 38.8934 142.456 38.9756C142.617 39.0544 142.768 39.1261 142.909 39.1907C143.06 39.2624 143.184 39.3162 143.283 39.3523L142.406 40.6457C142.272 40.6164 142.112 40.5693 141.926 40.5044C141.757 40.4361 141.573 40.3571 141.373 40.2674C141.19 40.1743 141.006 40.0724 140.82 39.9617C140.645 39.8581 140.483 39.7563 140.336 39.6565Z" fill="#FEFEFE"/>
<path d="M149.951 36.3171L149.068 35.5601L149.887 34.6054C150.054 34.6648 150.231 34.7413 150.419 34.8351C150.624 34.9276 150.807 35.0262 150.968 35.131L151.44 34.5813C152.085 33.8291 152.783 33.4153 153.535 33.3398C154.286 33.2643 155.004 33.5203 155.688 34.1077C155.929 34.3145 156.169 34.562 156.407 34.8502C156.655 35.1466 156.834 35.4258 156.945 35.6877L155.915 36.8883C155.679 36.4017 155.359 35.9846 154.954 35.6372C154.568 35.3062 154.2 35.1496 153.85 35.1674C153.51 35.1934 153.149 35.4283 152.769 35.8719L152.396 36.3058L154.638 38.2294L153.596 39.4445L151.383 37.5457L145.997 43.8237L144.565 42.5951L149.951 36.3171Z" fill="#FEFEFE"/>
<path d="M153.553 51.3334C153.061 50.768 152.702 50.1712 152.475 49.5432C152.258 48.9067 152.167 48.27 152.202 47.633C152.245 47.0056 152.413 46.3958 152.706 45.8036C153 45.2115 153.424 44.6735 153.98 44.1896L154.124 44.0644C154.679 43.5805 155.271 43.2342 155.898 43.0253C156.524 42.8165 157.152 42.7338 157.779 42.7772C158.415 42.8302 159.028 43.0122 159.619 43.3233C160.22 43.626 160.766 44.06 161.258 44.6254L161.333 44.7117C161.825 45.2771 162.18 45.878 162.397 46.5144C162.624 47.1425 162.716 47.7703 162.672 48.3977C162.629 49.0251 162.461 49.6349 162.168 50.2271C161.874 50.8192 161.45 51.3572 160.894 51.8411L160.75 51.9663C160.195 52.4502 159.603 52.7966 158.976 53.0054C158.35 53.2142 157.722 53.2969 157.095 53.2535C156.468 53.2101 155.854 53.037 155.253 52.7343C154.662 52.4233 154.121 51.9851 153.628 51.4197L153.553 51.3334ZM154.84 50.3146C155.148 50.6692 155.49 50.936 155.865 51.115C156.248 51.3036 156.642 51.4074 157.046 51.4264C157.459 51.4369 157.874 51.3621 158.291 51.2017C158.707 51.0414 159.102 50.7986 159.476 50.4732L159.591 50.3731C159.965 50.0477 160.259 49.6898 160.476 49.2995C160.692 48.9092 160.818 48.5126 160.855 48.1099C160.901 47.6988 160.858 47.2905 160.724 46.885C160.598 46.489 160.381 46.1138 160.072 45.7592L160.034 45.7161C159.734 45.3711 159.392 45.1043 159.009 44.9157C158.634 44.7366 158.24 44.6418 157.826 44.6312C157.422 44.6123 157.012 44.683 156.596 44.8433C156.18 45.0037 155.785 45.2465 155.411 45.5719L155.296 45.672C154.922 45.9974 154.627 46.3553 154.411 46.7456C154.195 47.1359 154.064 47.5366 154.017 47.9477C153.98 48.3504 154.025 48.7497 154.15 49.1457C154.284 49.5512 154.502 49.9265 154.802 50.2715L154.84 50.3146Z" fill="#FEFEFE"/>
<path d="M170.427 50.3163L171.469 51.8894L160.028 59.467L158.987 57.8939L170.427 50.3163Z" fill="#FEFEFE"/>
<path d="M173.123 58.5721C172.96 58.2705 172.916 57.9763 172.992 57.6895C173.068 57.4028 173.251 57.1806 173.541 57.0232C173.821 56.8718 174.107 56.8396 174.399 56.9266C174.692 57.0136 174.92 57.2079 175.084 57.5095C175.247 57.8111 175.286 58.1083 175.199 58.4011C175.118 58.7051 174.938 58.9328 174.658 59.0842C174.368 59.2416 174.079 59.2683 173.791 59.1641C173.51 59.071 173.287 58.8737 173.123 58.5721ZM171.154 58.5776L172.053 60.2364L163.34 64.9593L162.441 63.3004L171.154 58.5776Z" fill="#FEFEFE"/>
<path d="M166.922 72.9642C166.657 72.2633 166.526 71.579 166.531 70.9113C166.547 70.239 166.682 69.6102 166.936 69.0247C167.194 68.4511 167.563 67.9374 168.043 67.4834C168.523 67.0294 169.108 66.6716 169.797 66.4101L169.975 66.3425C170.664 66.081 171.338 65.9609 171.999 65.9821C172.659 66.0033 173.276 66.1429 173.85 66.4008C174.428 66.6707 174.94 67.0539 175.387 67.5503C175.845 68.0422 176.208 68.6386 176.474 69.3395L176.514 69.4464C176.78 70.1473 176.905 70.8339 176.888 71.5061C176.883 72.1739 176.752 72.7946 176.494 73.3681C176.236 73.9417 175.867 74.4555 175.387 74.9095C174.907 75.3635 174.322 75.7212 173.633 75.9827L173.455 76.0503C172.766 76.3118 172.091 76.4319 171.431 76.4108C170.771 76.3896 170.154 76.25 169.58 75.992C169.007 75.734 168.49 75.359 168.032 74.8671C167.585 74.3707 167.229 73.772 166.963 73.0711L166.922 72.9642ZM168.482 72.4539C168.649 72.8935 168.877 73.2621 169.167 73.5599C169.461 73.8696 169.794 74.1032 170.167 74.2609C170.551 74.414 170.966 74.4875 171.412 74.4812C171.858 74.475 172.313 74.384 172.776 74.2082L172.919 74.1541C173.382 73.9782 173.783 73.7447 174.121 73.4533C174.459 73.162 174.715 72.8338 174.889 72.4688C175.075 72.0992 175.175 71.701 175.19 71.2742C175.209 70.8592 175.135 70.4319 174.968 69.9924L174.948 69.9389C174.786 69.5112 174.557 69.1426 174.263 68.8329C173.973 68.5352 173.636 68.3097 173.252 68.1566C172.88 67.9989 172.471 67.9232 172.024 67.9294C171.578 67.9356 171.124 68.0267 170.66 68.2025L170.518 68.2566C170.054 68.4324 169.654 68.666 169.316 68.9573C168.978 69.2486 168.716 69.5791 168.53 69.9486C168.356 70.3137 168.259 70.7037 168.24 71.1187C168.226 71.5455 168.299 71.9728 168.462 72.4005L168.482 72.4539Z" fill="#FEFEFE"/>
</svg>
