<svg width="200" height="200" viewBox="0 0 200 200" fill="none" xmlns="http://www.w3.org/2000/svg">
<circle cx="100" cy="100" r="100" fill="#FF4A1C"/>
<path d="M180.248 100.204C180.248 144.387 144.43 180.204 100.248 180.204C56.0648 180.204 20.2476 144.387 20.2476 100.204C20.2476 56.0213 56.0648 20.2041 100.248 20.2041C144.43 20.2041 180.248 56.0213 180.248 100.204Z" fill="#FF4A1C"/>
<path d="M175.462 100.13L175.371 101.106C175.818 101.63 176.901 102.078 178.621 102.452C180.339 102.839 182.745 103.176 185.838 103.463L187.312 103.6L186.467 112.701L174.399 111.581L174.253 113.154L169.692 112.731L169.879 110.72L172.568 110.969L173.401 101.988L170.713 101.738L170.901 99.7069L175.462 100.13ZM184.972 105.432C182.451 105.184 180.391 104.873 178.792 104.497C177.207 104.122 176.002 103.682 175.179 103.177L174.591 109.51L184.807 110.458L185.271 105.46L184.972 105.432Z" fill="#FEFEFE"/>
<path d="M182.003 117.451L181.49 119.342L174.541 117.459L174.515 117.556L180.031 124.728L179.523 126.601L169.485 123.88L169.998 121.989L177.275 123.961L177.296 123.884L171.51 116.41L171.965 114.73L182.003 117.451Z" fill="#FEFEFE"/>
<path d="M178.098 130.483L176.039 135.061C175.842 135.499 175.601 135.873 175.316 136.183C175.025 136.506 174.709 136.751 174.37 136.92C174.043 137.095 173.701 137.19 173.343 137.204C172.981 137.231 172.623 137.165 172.27 137.007L171.978 136.876C171.589 136.701 171.283 136.439 171.06 136.09C170.849 135.746 170.713 135.349 170.653 134.898C170.216 135.316 169.753 135.583 169.262 135.698C168.772 135.814 168.295 135.768 167.833 135.56L167.559 135.437C167.182 135.268 166.874 135.027 166.635 134.714C166.402 134.42 166.235 134.074 166.135 133.679C166.03 133.295 166.001 132.872 166.047 132.411C166.106 131.955 166.242 131.49 166.455 131.016L168.612 126.218L178.098 130.483ZM172.186 133C171.983 133.45 171.932 133.858 172.03 134.224C172.136 134.607 172.365 134.878 172.717 135.037L172.827 135.086C173.179 135.245 173.528 135.233 173.873 135.052C174.224 134.888 174.498 134.588 174.695 134.15L175.843 131.596L173.326 130.464L172.186 133ZM168.013 131.453C167.794 131.939 167.738 132.389 167.845 132.803C167.946 133.228 168.173 133.52 168.526 133.679L168.708 133.761C169.085 133.93 169.457 133.915 169.825 133.715C170.187 133.527 170.481 133.183 170.705 132.685L171.976 129.858L169.276 128.644L168.013 131.453Z" fill="#FEFEFE"/>
<path d="M172.647 141.911L171.57 143.549L165.553 139.595L165.498 139.679L168.506 148.212L167.441 149.833L158.749 144.122L159.826 142.484L166.127 146.625L166.171 146.558L163 137.654L163.955 136.2L172.647 141.911Z" fill="#FEFEFE"/>
<path d="M162.283 153.354L164.481 150.866L165.77 152.005L160.063 158.465L158.774 157.326L160.972 154.838L154.467 149.091L155.778 147.607L162.283 153.354Z" fill="#FEFEFE"/>
<path d="M157.863 160.685L156.371 161.956L151.703 156.474L151.626 156.539L152.123 165.573L150.646 166.831L143.903 158.913L145.395 157.643L150.283 163.383L150.344 163.331L149.795 153.895L151.12 152.767L157.863 160.685Z" fill="#FEFEFE"/>
<path d="M137.878 162.609C138.538 162.206 139.212 161.942 139.902 161.817C140.58 161.7 141.237 161.713 141.871 161.857C142.501 162.019 143.091 162.307 143.641 162.721C144.198 163.147 144.678 163.689 145.081 164.349L145.196 164.537C145.599 165.197 145.859 165.866 145.976 166.544C146.082 167.229 146.06 167.884 145.909 168.507C145.754 169.148 145.47 169.744 145.056 170.294C144.642 170.844 144.116 171.313 143.479 171.702L143.376 171.765C142.5 172.3 141.625 172.569 140.752 172.571C139.878 172.573 139.065 172.367 138.311 171.952L139.125 170.33C139.661 170.644 140.21 170.801 140.772 170.801C141.342 170.812 141.916 170.641 142.497 170.286L142.531 170.266C143.373 169.751 143.875 169.077 144.038 168.244C144.189 167.417 143.976 166.531 143.4 165.587L143.316 165.45C143.038 164.995 142.716 164.622 142.35 164.33C141.991 164.049 141.603 163.848 141.186 163.728C140.776 163.619 140.355 163.595 139.923 163.656C139.487 163.735 139.064 163.899 138.655 164.149L138.604 164.181C138.012 164.542 137.6 164.981 137.369 165.497C137.133 166.032 137.026 166.574 137.049 167.122L135.237 167.034C135.23 166.178 135.431 165.369 135.839 164.604C136.254 163.851 136.893 163.21 137.758 162.682L137.878 162.609Z" fill="#FEFEFE"/>
<path d="M136.464 175.445L134.643 176.224L133.276 173.024L130.719 174.116C130.229 174.326 129.747 174.437 129.274 174.451C128.795 174.482 128.35 174.425 127.941 174.281C127.519 174.143 127.15 173.923 126.833 173.624C126.504 173.329 126.245 172.961 126.057 172.52L125.931 172.226C125.742 171.784 125.655 171.343 125.67 170.902C125.672 170.466 125.769 170.048 125.96 169.647C126.139 169.251 126.403 168.885 126.751 168.547C127.105 168.222 127.528 167.955 128.018 167.745L132.377 165.882L136.464 175.445ZM128.762 169.232C128.297 169.431 127.973 169.743 127.792 170.169C127.612 170.594 127.616 171.027 127.804 171.469L127.899 171.689C128.092 172.143 128.403 172.445 128.83 172.596C129.262 172.759 129.711 172.742 130.177 172.542L132.642 171.489L131.227 168.179L128.762 169.232Z" fill="#FEFEFE"/>
<path d="M120.771 181.173L115.847 182.151C115.376 182.244 114.932 182.265 114.514 182.212C114.082 182.162 113.699 182.047 113.365 181.869C113.033 181.704 112.757 181.48 112.538 181.197C112.306 180.917 112.152 180.588 112.076 180.208L112.014 179.894C111.931 179.476 111.967 179.075 112.122 178.69C112.279 178.319 112.524 177.978 112.856 177.668C112.263 177.554 111.777 177.331 111.398 176.999C111.019 176.666 110.781 176.252 110.682 175.755L110.623 175.46C110.543 175.055 110.56 174.664 110.676 174.288C110.781 173.927 110.966 173.591 111.23 173.28C111.482 172.972 111.809 172.703 112.212 172.474C112.617 172.257 113.075 172.098 113.585 171.997L118.745 170.972L120.771 181.173ZM115.292 177.816C114.808 177.912 114.446 178.106 114.205 178.399C113.953 178.707 113.865 179.051 113.941 179.43L113.964 179.548C114.039 179.927 114.251 180.204 114.598 180.38C114.935 180.571 115.339 180.62 115.81 180.527L118.556 179.981L118.019 177.274L115.292 177.816ZM114.133 173.519C113.609 173.623 113.21 173.839 112.935 174.165C112.647 174.494 112.541 174.848 112.616 175.228L112.655 175.424C112.736 175.829 112.964 176.124 113.341 176.307C113.704 176.493 114.153 176.533 114.69 176.427L117.73 175.822L117.153 172.919L114.133 173.519Z" fill="#FEFEFE"/>
<path d="M103.357 172.999C104.13 172.964 104.848 173.057 105.513 173.28C106.164 173.503 106.733 173.831 107.22 174.262C107.695 174.707 108.073 175.244 108.356 175.871C108.639 176.512 108.799 177.219 108.834 177.991L108.845 178.211C108.88 178.984 108.787 179.695 108.563 180.346C108.326 180.998 107.992 181.561 107.56 182.035C107.116 182.522 106.58 182.908 105.952 183.19C105.324 183.473 104.638 183.632 103.892 183.666L103.772 183.672C102.746 183.719 101.85 183.534 101.083 183.116C100.316 182.697 99.7027 182.125 99.2419 181.399L100.736 180.369C101.054 180.901 101.46 181.303 101.953 181.574C102.447 181.858 103.033 181.984 103.712 181.953L103.752 181.951C104.738 181.905 105.503 181.556 106.046 180.903C106.577 180.252 106.816 179.373 106.765 178.267L106.758 178.108C106.733 177.575 106.63 177.092 106.45 176.66C106.271 176.241 106.027 175.879 105.719 175.573C105.412 175.28 105.055 175.056 104.647 174.902C104.227 174.761 103.777 174.702 103.297 174.724L103.237 174.727C102.545 174.759 101.973 174.946 101.521 175.287C101.057 175.642 100.703 176.066 100.459 176.557L98.9135 175.608C99.319 174.855 99.8846 174.242 100.61 173.767C101.336 173.307 102.205 173.053 103.218 173.006L103.357 172.999Z" fill="#FEFEFE"/>
<path d="M94.6357 185.241C94.9949 185.265 95.2807 185.39 95.4929 185.618C95.705 185.846 95.7998 186.133 95.7771 186.479C95.7552 186.811 95.6238 187.083 95.3827 187.295C95.1417 187.506 94.8416 187.6 94.4824 187.576C94.1231 187.553 93.8379 187.42 93.6265 187.179C93.4019 186.937 93.3005 186.65 93.3224 186.317C93.3451 185.972 93.4832 185.7 93.7366 185.503C93.9768 185.305 94.2765 185.218 94.6357 185.241ZM95.7329 183.489L93.7571 183.36L94.4388 172.982L96.4145 173.112L95.7329 183.489Z" fill="#FEFEFE"/>
<path d="M84.1586 182.229L82.6498 181.832C82.6328 181.634 82.6341 181.394 82.6537 181.109C82.6604 180.821 82.6797 180.565 82.7115 180.339C82.1572 180.717 81.5349 180.96 80.8448 181.068C80.1512 181.189 79.4305 181.151 78.6826 180.955L78.6052 180.934C77.9088 180.751 77.298 180.453 76.7726 180.039C76.2438 179.638 75.826 179.156 75.5191 178.593C75.1959 178.039 74.9948 177.414 74.9159 176.718C74.8336 176.034 74.8907 175.319 75.0873 174.571L75.1382 174.377C75.3348 173.629 75.6386 172.972 76.0498 172.404C76.4575 171.85 76.9399 171.404 77.4969 171.068C78.0377 170.742 78.6386 170.527 79.2996 170.425C79.9572 170.336 80.6341 170.383 81.3305 170.566L81.4079 170.587C82.13 170.777 82.7602 171.08 83.2985 171.497C83.8239 171.911 84.2383 172.406 84.5418 172.982L85.9045 167.798L87.8194 168.302L84.1586 182.229ZM81.1976 172.331C80.2434 172.08 79.4012 172.189 78.6711 172.659C77.9281 173.125 77.4193 173.881 77.1448 174.925L77.1041 175.08C76.8295 176.125 76.901 177.033 77.3186 177.804C77.7233 178.572 78.4028 179.082 79.357 179.333L79.4731 179.363C80.4273 179.614 81.276 179.506 82.0189 179.04C82.7619 178.573 83.2707 177.818 83.5453 176.773L83.586 176.619C83.8605 175.574 83.789 174.666 83.3714 173.895C82.9538 173.123 82.2679 172.612 81.3137 172.361L81.1976 172.331Z" fill="#FEFEFE"/>
<path d="M70.231 166.594C70.9473 166.919 71.5505 167.332 72.0406 167.833C72.5252 168.346 72.8896 168.914 73.1337 169.537C73.3657 170.155 73.4707 170.811 73.4489 171.504C73.4271 172.197 73.2564 172.895 72.9366 173.599L72.8539 173.781C72.5342 174.485 72.1206 175.074 71.6132 175.546C71.1058 176.019 70.5431 176.371 69.9253 176.603C69.2953 176.829 68.6305 176.923 67.9309 176.883C67.2257 176.856 66.515 176.68 65.7987 176.355L65.6895 176.305C64.9732 175.98 64.3727 175.561 63.8881 175.048C63.398 174.547 63.0369 173.988 62.805 173.37C62.573 172.752 62.4679 172.096 62.4897 171.403C62.5115 170.71 62.6823 170.012 63.0021 169.308L63.0847 169.126C63.4045 168.421 63.8181 167.833 64.3255 167.361C64.8329 166.888 65.3955 166.536 66.0134 166.304C66.6313 166.072 67.2928 165.97 67.9979 165.997C68.6975 166.037 69.4054 166.219 70.1217 166.544L70.231 166.594ZM69.447 168.127C68.9978 167.923 68.5553 167.817 68.1194 167.809C67.6714 167.796 67.2504 167.869 66.8566 168.027C66.4572 168.197 66.0937 168.449 65.7661 168.784C65.4385 169.118 65.1672 169.522 64.9522 169.996L64.886 170.141C64.671 170.615 64.5454 171.085 64.5092 171.552C64.4729 172.018 64.5249 172.452 64.6652 172.853C64.8 173.265 65.0198 173.636 65.3244 173.965C65.617 174.288 65.9878 174.551 66.437 174.755L66.4917 174.78C66.9287 174.979 67.3713 175.084 67.8193 175.097C68.2551 175.105 68.6728 175.024 69.0722 174.854C69.4661 174.696 69.8268 174.45 70.1544 174.115C70.482 173.781 70.7533 173.377 70.9683 172.903L71.0345 172.757C71.2495 172.284 71.3751 171.814 71.4113 171.347C71.4475 170.88 71.3983 170.441 71.2635 170.028C71.1232 169.627 70.9068 169.266 70.6142 168.942C70.3096 168.614 69.9387 168.35 69.5016 168.152L69.447 168.127Z" fill="#FEFEFE"/>
<path d="M59.8858 160.85C61.3385 161.819 62.118 163.053 62.2242 164.551C62.3305 166.049 61.7506 167.746 60.4847 169.642C59.2409 171.505 57.9126 172.702 56.4996 173.234C55.0866 173.765 53.5945 173.707 52.0233 173.059C51.6573 172.911 51.2876 172.744 50.9142 172.559C50.5297 172.366 50.1693 172.174 49.8329 171.981C49.478 171.793 49.1527 171.607 48.857 171.426C48.5502 171.237 48.2859 171.069 48.0641 170.921L49.1413 169.307C49.7401 169.707 50.3574 170.079 50.9932 170.423C51.618 170.76 52.2298 171.057 52.8287 171.312C53.8787 171.757 54.8567 171.864 55.7629 171.636C56.669 171.407 57.5607 170.744 58.4378 169.646C57.7165 170.03 56.9472 170.222 56.1299 170.222C55.3016 170.214 54.5214 169.965 53.7896 169.477L53.6731 169.399C53.0854 169.007 52.6179 168.542 52.2706 168.006C51.9234 167.469 51.7037 166.898 51.6117 166.291C51.5011 165.688 51.5256 165.064 51.685 164.416C51.826 163.773 52.1 163.146 52.5072 162.537L52.7404 162.187C53.1476 161.577 53.6361 161.086 54.2058 160.713C54.757 160.343 55.347 160.096 55.9758 159.971C56.6045 159.845 57.2443 159.848 57.895 159.977C58.5458 160.107 59.1706 160.372 59.7694 160.772L59.8858 160.85ZM58.8532 162.252C58.4872 162.008 58.1046 161.849 57.7053 161.774C57.2874 161.704 56.8806 161.713 56.4849 161.801C56.0891 161.89 55.7155 162.065 55.3641 162.328C55.0015 162.583 54.6869 162.91 54.4204 163.309L54.1761 163.675C53.9096 164.074 53.7226 164.486 53.6151 164.911C53.5075 165.337 53.4832 165.745 53.5421 166.137C53.5936 166.54 53.7358 166.916 53.9685 167.264C54.1828 167.615 54.484 167.92 54.8721 168.179L54.922 168.213C55.299 168.464 55.702 168.629 56.1309 168.707C56.5487 168.778 56.9629 168.758 57.3735 168.647C57.7766 168.547 58.1632 168.365 58.5331 168.099C58.8957 167.844 59.2103 167.517 59.4768 167.117L59.6878 166.801C59.9543 166.402 60.1413 165.99 60.2488 165.565C60.3379 165.143 60.3474 164.733 60.2774 164.333C60.2074 163.934 60.0653 163.558 59.851 163.207C59.6183 162.859 59.3134 162.56 58.9363 162.308L58.8532 162.252Z" fill="#FEFEFE"/>
<path d="M50.6455 153.546C51.2216 154.082 51.6627 154.665 51.9686 155.295C52.2655 155.935 52.4308 156.59 52.4645 157.258C52.4885 157.918 52.3802 158.573 52.1397 159.223C51.8992 159.873 51.5156 160.482 50.989 161.048L50.8528 161.194C50.3262 161.761 49.7474 162.187 49.1163 162.475C48.4852 162.762 47.8399 162.917 47.1803 162.941C46.511 162.956 45.8509 162.834 45.1999 162.574C44.5399 162.325 43.9218 161.932 43.3457 161.397L43.2579 161.315C42.6818 160.779 42.2453 160.191 41.9484 159.551C41.6425 158.921 41.4775 158.276 41.4535 157.616C41.4296 156.957 41.5378 156.302 41.7784 155.651C42.0189 155.001 42.4024 154.393 42.929 153.826L43.0652 153.68C43.5918 153.114 44.1707 152.687 44.8018 152.4C45.4329 152.113 46.0782 151.957 46.7377 151.933C47.3973 151.909 48.057 152.022 48.7171 152.272C49.368 152.531 49.9816 152.929 50.5577 153.464L50.6455 153.546ZM49.4157 154.751C49.0544 154.415 48.6683 154.174 48.2574 154.029C47.8366 153.874 47.4144 153.81 46.9908 153.834C46.5581 153.869 46.1333 153.993 45.7165 154.206C45.2997 154.42 44.9143 154.717 44.5602 155.097L44.4513 155.215C44.0972 155.595 43.8289 156.001 43.6464 156.433C43.464 156.864 43.3758 157.291 43.3818 157.716C43.3787 158.15 43.4695 158.571 43.6541 158.98C43.829 159.379 44.0971 159.746 44.4584 160.082L44.5023 160.123C44.8538 160.45 45.24 160.691 45.6607 160.845C46.0717 160.991 46.4935 161.046 46.9262 161.012C47.3499 160.987 47.7701 160.868 48.1869 160.654C48.6037 160.441 48.9891 160.144 49.3432 159.763L49.4522 159.646C49.8063 159.265 50.0745 158.859 50.257 158.428C50.4394 157.997 50.5322 157.564 50.5353 157.13C50.5293 156.706 50.4388 156.294 50.2639 155.895C50.0793 155.486 49.8112 155.119 49.4597 154.792L49.4157 154.751Z" fill="#FEFEFE"/>
<path d="M37.32 152.298L39.398 154.887L38.0566 155.963L32.6612 149.241L34.0026 148.164L36.0807 150.753L42.8501 145.32L44.0894 146.865L37.32 152.298Z" fill="#FEFEFE"/>
<path d="M30.8453 146.718L29.8484 145.03L36.0475 141.368L35.9966 141.282L27.0103 140.226L26.0235 138.556L34.9778 133.266L35.9747 134.953L29.4829 138.788L29.5235 138.857L38.9146 139.93L39.7996 141.428L30.8453 146.718Z" fill="#FEFEFE"/>
<path d="M25.7784 110.837L25.733 109.858C25.218 109.401 24.0832 109.107 22.3285 108.974C20.5732 108.829 18.1439 108.828 15.0405 108.972L13.5621 109.04L13.139 99.9101L25.246 99.349L25.1729 97.7707L29.748 97.5587L29.8415 99.5765L27.1444 99.7015L27.5619 108.712L30.259 108.587L30.3535 110.625L25.7784 110.837ZM15.6254 106.902C18.1566 106.799 20.2399 106.822 21.8754 106.973C23.4975 107.125 24.7513 107.394 25.6367 107.78L25.3423 101.427L15.0933 101.902L15.3257 106.916L15.6254 106.902Z" fill="#FEFEFE"/>
<path d="M16.9283 94.0521L17.1843 92.1089L24.3226 93.0494L24.3357 92.9503L17.9132 86.5767L18.1666 84.6533L28.4775 86.0118L28.2215 87.955L20.7461 86.9701L20.7356 87.0494L27.4665 93.6855L27.2392 95.4106L16.9283 94.0521Z" fill="#FEFEFE"/>
<path d="M19.0017 80.7749L20.4245 75.9608C20.5606 75.5004 20.7492 75.0974 20.9905 74.7516C21.2355 74.393 21.5146 74.1071 21.8279 73.8938C22.1284 73.6767 22.4548 73.5368 22.807 73.4741C23.163 73.3985 23.5265 73.4156 23.8973 73.5252L24.2041 73.6159C24.6133 73.7368 24.952 73.9551 25.2202 74.2707C25.4756 74.5825 25.6636 74.9579 25.7842 75.3967C26.1603 74.9239 26.5836 74.5972 27.0541 74.4165C27.5246 74.2357 28.0028 74.2172 28.4887 74.3608L28.7764 74.4458C29.1728 74.563 29.5108 74.7602 29.7903 75.0374C30.0608 75.2981 30.2722 75.6178 30.4245 75.9965C30.5805 76.3624 30.6665 76.7771 30.6824 77.2406C30.6856 77.7004 30.6135 78.1796 30.4661 78.6783L28.9752 83.7226L19.0017 80.7749ZM24.5207 77.4842C24.6605 77.0111 24.6569 76.5999 24.5099 76.2506C24.3539 75.8847 24.0905 75.6469 23.7197 75.5373L23.6046 75.5033C23.2338 75.3937 22.8898 75.452 22.5728 75.678C22.2467 75.8875 22.0156 76.2225 21.8796 76.6828L21.086 79.368L23.7328 80.1502L24.5207 77.4842ZM28.8637 78.455C29.0148 77.9435 29.0098 77.4901 28.8485 77.0949C28.6911 76.6869 28.4269 76.428 28.0561 76.3185L27.8643 76.2618C27.4679 76.1446 27.101 76.21 26.7636 76.4578C26.43 76.6929 26.1857 77.0726 26.0307 77.5968L25.1521 80.5697L27.9907 81.4087L28.8637 78.455Z" fill="#FEFEFE"/>
<path d="M22.7893 68.8346L23.6327 67.0653L30.132 70.1636L30.175 70.0733L26.0339 62.0284L26.8687 60.2772L36.2566 64.7525L35.4131 66.5217L28.6069 63.2771L28.5725 63.3494L32.9259 71.7392L32.1772 73.3099L22.7893 68.8346Z" fill="#FEFEFE"/>
<path d="M31.4714 56.1002L29.628 58.8614L28.1975 57.9063L32.9837 50.7372L34.4142 51.6922L32.5708 54.4534L39.7898 59.273L38.6904 60.9197L31.4714 56.1002Z" fill="#FEFEFE"/>
<path d="M35.0674 47.9434L36.381 46.4888L41.7245 51.3144L41.7915 51.2402L40.1209 42.3476L41.4212 40.9078L49.1395 47.8782L47.8259 49.3328L42.2301 44.2793L42.1765 44.3386L43.9519 53.6225L42.7857 54.9138L35.0674 47.9434Z" fill="#FEFEFE"/>
<path d="M54.3099 43.6464C53.7104 44.1348 53.0773 44.4872 52.4108 44.7034C51.7546 44.9112 51.1024 44.9867 50.4543 44.93C49.8081 44.8545 49.1847 44.6486 48.584 44.3124C47.975 43.9659 47.4263 43.4928 46.9378 42.8933L46.7989 42.7227C46.3105 42.1231 45.9624 41.4952 45.7546 40.839C45.5571 40.1744 45.4909 39.5232 45.5561 38.8854C45.6232 38.2289 45.8248 37.6003 46.161 36.9997C46.4972 36.399 46.9547 35.8629 47.5336 35.3914L47.6267 35.3156C48.4227 34.6672 49.2533 34.2829 50.1185 34.1628C50.9837 34.0427 51.8175 34.1373 52.6199 34.4468L52.0322 36.1637C51.4595 35.9251 50.8945 35.8437 50.3371 35.9194C49.7712 35.9848 49.2247 36.2323 48.6975 36.6617L48.6665 36.687C47.9015 37.3102 47.4947 38.0457 47.4459 38.8937C47.4076 39.7332 47.7378 40.582 48.4368 41.44L48.5378 41.5641C48.8747 41.9776 49.2441 42.3044 49.646 42.5444C50.0396 42.7742 50.4511 42.9205 50.8806 42.9833C51.3017 43.0358 51.7221 43.0029 52.1417 42.8847C52.5632 42.7477 52.96 42.5276 53.3322 42.2245L53.3787 42.1866C53.9162 41.7487 54.2649 41.2583 54.4246 40.7155C54.5862 40.1539 54.6188 39.6028 54.5224 39.0622L56.3296 38.9057C56.4516 39.7521 56.3621 40.5817 56.0611 41.3944C55.7517 42.1968 55.2041 42.918 54.4185 43.558L54.3099 43.6464Z" fill="#FEFEFE"/>
<path d="M54.3069 30.4807L56.0079 29.4673L57.789 32.457L60.1773 31.0343C60.6355 30.7613 61.0979 30.5867 61.5647 30.5104C62.036 30.4159 62.4842 30.4127 62.9092 30.501C63.3457 30.5824 63.7408 30.7505 64.0944 31.0055C64.4595 31.2536 64.7649 31.5838 65.0105 31.9962L65.1743 32.2711C65.42 32.6835 65.565 33.1093 65.6093 33.5484C65.6651 33.9808 65.6249 34.4083 65.4887 34.8309C65.3639 35.2467 65.1511 35.645 64.8503 36.0259C64.5428 36.3954 64.1599 36.7166 63.7017 36.9896L59.6295 39.4154L54.3069 30.4807ZM62.7662 35.6146C63.2015 35.3553 63.4804 35.0029 63.603 34.5574C63.7256 34.1119 63.6641 33.6829 63.4184 33.2706L63.2956 33.0644C63.0431 32.6405 62.6952 32.3822 62.2519 32.2893C61.8018 32.185 61.3591 32.2625 60.9238 32.5218L58.6213 33.8934L60.4638 36.9862L62.7662 35.6146Z" fill="#FEFEFE"/>
<path d="M68.6949 22.8459L73.4397 21.2066C73.8934 21.0498 74.331 20.9692 74.7526 20.9646C75.1869 20.9556 75.5818 21.0167 75.9374 21.1477C76.2887 21.2662 76.5922 21.4505 76.8479 21.7007C77.1162 21.9466 77.3135 22.2522 77.4398 22.6177L77.5443 22.9202C77.6836 23.3234 77.7028 23.7259 77.6017 24.1276C77.4963 24.5167 77.3001 24.8878 77.013 25.2409C77.6163 25.2722 78.1282 25.4269 78.5487 25.7048C78.9692 25.9827 79.2621 26.3612 79.4276 26.84L79.5256 27.1236C79.6605 27.5143 79.6964 27.9039 79.6332 28.2925C79.5782 28.6642 79.4409 29.022 79.2211 29.3659C79.014 29.7055 78.7264 30.0165 78.3585 30.2988C77.9861 30.5685 77.5542 30.7883 77.0627 30.9581L72.0911 32.6758L68.6949 22.8459ZM74.5799 25.4255C75.0462 25.2644 75.3788 25.0226 75.5777 24.6999C75.7848 24.3603 75.8252 24.0078 75.699 23.6423L75.6598 23.5289C75.5335 23.1635 75.2863 22.9174 74.918 22.7907C74.5581 22.647 74.1512 22.6536 73.6975 22.8103L71.051 23.7247L71.9523 26.3334L74.5799 25.4255ZM76.3134 29.5242C76.8175 29.35 77.1835 29.0825 77.4115 28.7216C77.6521 28.3563 77.7092 27.9909 77.583 27.6255L77.5177 27.4364C77.3827 27.0458 77.1163 26.7851 76.7185 26.6545C76.3333 26.5196 75.8824 26.5414 75.3657 26.7199L72.4356 27.7322L73.4022 30.53L76.3134 29.5242Z" fill="#FEFEFE"/>
<path d="M87.1466 28.5172C86.3859 28.6563 85.6614 28.66 84.9731 28.5283C84.298 28.3942 83.6902 28.1461 83.1496 27.7841C82.6197 27.4066 82.1726 26.9258 81.8083 26.3418C81.4416 25.7447 81.1887 25.0658 81.0497 24.305L81.0101 24.0886C80.871 23.3279 80.8685 22.61 81.0026 21.9349C81.1499 21.2573 81.4057 20.6548 81.7701 20.1274C82.1452 19.5844 82.6248 19.1307 83.2088 18.7664C83.7928 18.4021 84.452 18.1529 85.1865 18.0186L85.3046 17.997C86.3145 17.8123 87.2275 17.8759 88.0435 18.1875C88.8595 18.4992 89.5445 18.9839 90.0985 19.6417L88.7563 20.863C88.3694 20.378 87.9135 20.0343 87.3886 19.8321C86.8613 19.6168 86.2631 19.5702 85.5942 19.6925L85.5549 19.6997C84.5843 19.8772 83.8734 20.3257 83.4221 21.0452C82.9839 21.7624 82.8643 22.6653 83.0634 23.7539L83.0921 23.9113C83.1881 24.4359 83.3543 24.9003 83.5908 25.3043C83.8249 25.6953 84.115 26.0218 84.4611 26.2838C84.8048 26.5327 85.189 26.7064 85.6137 26.805C86.049 26.8881 86.5028 26.8864 86.975 26.8001L87.034 26.7893C87.716 26.6646 88.2578 26.4029 88.6593 26.0042C89.0715 25.59 89.3656 25.1228 89.5416 24.6027L91.2006 25.3363C90.8997 26.1368 90.4215 26.8206 89.7662 27.3877C89.1084 27.9417 88.2811 28.3098 87.2843 28.4921L87.1466 28.5172Z" fill="#FEFEFE"/>
<path d="M93.671 15.2319C93.3118 15.2568 93.0118 15.1708 92.7709 14.9737C92.53 14.7766 92.3975 14.5051 92.3734 14.1593C92.3503 13.8268 92.4439 13.5396 92.6543 13.2977C92.8647 13.0559 93.1495 12.9225 93.5086 12.8975C93.8677 12.8725 94.1682 12.9652 94.4101 13.1756C94.6652 13.3851 94.8044 13.6561 94.8275 13.9886C94.8515 14.3344 94.7513 14.6221 94.5266 14.8516C94.3153 15.0801 94.0301 15.2069 93.671 15.2319ZM92.8196 17.1155L94.7948 16.9781L95.5164 27.353L93.5412 27.4904L92.8196 17.1155Z" fill="#FEFEFE"/>
<path d="M104.726 16.7342L106.275 16.9201C106.319 17.1134 106.351 17.3522 106.37 17.6366C106.403 17.9225 106.419 18.1796 106.419 18.4078C106.916 17.9572 107.499 17.6311 108.168 17.4293C108.838 17.2144 109.557 17.153 110.325 17.2452L110.405 17.2547C111.119 17.3405 111.765 17.5523 112.343 17.8902C112.921 18.2148 113.401 18.6351 113.783 19.1508C114.179 19.655 114.464 20.2465 114.637 20.9253C114.812 21.591 114.854 22.3077 114.762 23.0755L114.738 23.2741C114.646 24.0419 114.435 24.7351 114.106 25.3536C113.778 25.9588 113.361 26.4661 112.855 26.8754C112.364 27.273 111.799 27.5677 111.158 27.7594C110.519 27.9378 109.842 27.9841 109.127 27.8983L109.047 27.8887C108.306 27.7997 107.64 27.5855 107.05 27.2461C106.473 26.9082 105.994 26.4747 105.614 25.9457L104.976 31.2675L103.01 31.0315L104.726 16.7342ZM109.016 26.1325C109.996 26.2501 110.815 26.0262 111.474 25.4607C112.146 24.8967 112.546 24.0786 112.675 23.0063L112.694 22.8475C112.823 21.7752 112.628 20.8855 112.108 20.1786C111.602 19.4732 110.859 19.0617 109.879 18.9441L109.76 18.9298C108.781 18.8122 107.955 19.0354 107.283 19.5993C106.611 20.1632 106.21 20.9814 106.082 22.0537L106.063 22.2125C105.934 23.2848 106.129 24.1745 106.649 24.8814C107.168 25.5884 107.918 26.0006 108.897 26.1182L109.016 26.1325Z" fill="#FEFEFE"/>
<path d="M120.989 30.357C120.235 30.1312 119.582 29.8032 119.029 29.373C118.48 28.93 118.042 28.4161 117.716 27.8313C117.403 27.2503 117.211 26.615 117.139 25.9254C117.067 25.2358 117.142 24.5206 117.364 23.7798L117.422 23.5882C117.644 22.8474 117.974 22.2088 118.413 21.6723C118.853 21.1357 119.363 20.7109 119.944 20.3979C120.537 20.0886 121.184 19.9065 121.882 19.8513C122.585 19.7834 123.313 19.8624 124.066 20.0882L124.181 20.1227C124.935 20.3485 125.586 20.6829 126.135 21.1259C126.688 21.5561 127.121 22.0617 127.435 22.6427C127.748 23.2236 127.94 23.8589 128.012 24.5486C128.083 25.2382 128.008 25.9534 127.786 26.6942L127.729 26.8857C127.507 27.6265 127.176 28.2652 126.737 28.8017C126.298 29.3382 125.788 29.763 125.207 30.0761C124.626 30.3891 123.984 30.5796 123.282 30.6475C122.583 30.7026 121.857 30.6173 121.104 30.3915L120.989 30.357ZM121.559 28.7324C122.032 28.874 122.485 28.9192 122.917 28.868C123.363 28.8206 123.77 28.6921 124.139 28.4826C124.512 28.2602 124.839 27.9613 125.118 27.5857C125.398 27.2102 125.612 26.7734 125.761 26.2752L125.807 26.122C125.957 25.6239 126.018 25.1411 125.991 24.6737C125.964 24.2063 125.854 23.7836 125.661 23.4056C125.472 23.0149 125.204 22.6772 124.858 22.3925C124.525 22.1116 124.122 21.9004 123.649 21.7588L123.591 21.7416C123.132 21.6038 122.679 21.5586 122.233 21.606C121.8 21.6572 121.397 21.7939 121.025 22.0163C120.656 22.2258 120.331 22.5184 120.052 22.8939C119.772 23.2695 119.558 23.7063 119.408 24.2044L119.363 24.3577C119.213 24.8558 119.152 25.3386 119.179 25.806C119.206 26.2734 119.314 26.7025 119.503 27.0932C119.696 27.4712 119.959 27.8006 120.293 28.0815C120.639 28.3661 121.042 28.5774 121.502 28.7152L121.559 28.7324Z" fill="#FEFEFE"/>
<path d="M131.706 34.4856C130.135 33.7223 129.195 32.6059 128.886 31.1365C128.577 29.6671 128.921 27.907 129.918 25.8563C130.896 23.8415 132.05 22.4747 133.377 21.7559C134.705 21.0372 136.191 20.8921 137.836 21.3206C138.219 21.4176 138.607 21.5324 139.003 21.6651C139.41 21.8036 139.793 21.9453 140.152 22.0903C140.53 22.2291 140.877 22.3683 141.195 22.5078C141.524 22.6531 141.809 22.7841 142.049 22.9006L141.201 24.6456C140.553 24.3309 139.891 24.0462 139.215 23.7916C138.55 23.5427 137.903 23.3324 137.275 23.1607C136.175 22.8631 135.191 22.8892 134.324 23.239C133.458 23.5887 132.665 24.367 131.945 25.5738C132.607 25.0952 133.343 24.8006 134.153 24.69C134.975 24.5852 135.781 24.7251 136.573 25.1097L136.699 25.1709C137.334 25.4797 137.861 25.8762 138.278 26.3605C138.695 26.8447 138.99 27.381 139.164 27.9694C139.355 28.5516 139.416 29.1741 139.346 29.8368C139.294 30.4933 139.107 31.1514 138.787 31.811L138.603 32.1888C138.283 32.8484 137.866 33.4018 137.352 33.8489C136.856 34.2898 136.305 34.6151 135.7 34.8248C135.094 35.0344 134.46 35.1192 133.797 35.079C133.135 35.0388 132.48 34.8614 131.832 34.5468L131.706 34.4856ZM132.539 32.9555C132.934 33.1478 133.335 33.2535 133.741 33.2728C134.164 33.2858 134.566 33.2216 134.946 33.0802C135.326 32.9387 135.673 32.7141 135.985 32.4064C136.31 32.1046 136.577 31.7378 136.787 31.306L136.979 30.9103C137.189 30.4785 137.318 30.0447 137.367 29.6089C137.415 29.173 137.384 28.7649 137.272 28.3845C137.166 27.9921 136.974 27.6395 136.697 27.3266C136.436 27.0075 136.097 26.746 135.677 26.5421L135.623 26.5159C135.215 26.3178 134.793 26.2093 134.358 26.1904C133.934 26.1773 133.527 26.2535 133.135 26.419C132.749 26.5724 132.391 26.8061 132.061 27.1199C131.736 27.4218 131.469 27.7886 131.259 28.2203L131.093 28.5621C130.883 28.9939 130.754 29.4277 130.706 29.8635C130.675 30.2932 130.721 30.7012 130.845 31.0874C130.968 31.4736 131.16 31.8262 131.42 32.1453C131.698 32.4582 132.041 32.7137 132.449 32.9118L132.539 32.9555Z" fill="#FEFEFE"/>
<path d="M142.263 40.6951C141.622 40.2394 141.108 39.719 140.722 39.134C140.344 38.5381 140.095 37.911 139.974 37.2525C139.864 36.6018 139.886 35.9384 140.039 35.2622C140.193 34.5861 140.493 33.9328 140.941 33.3025L141.057 33.1395C141.505 32.5092 142.023 32.0104 142.611 31.6433C143.2 31.2761 143.819 31.0375 144.47 30.9275C145.131 30.8252 145.802 30.8601 146.481 31.0321C147.168 31.1933 147.832 31.5017 148.473 31.9575L148.571 32.027C149.212 32.4828 149.722 33.0086 150.1 33.6044C150.486 34.1894 150.734 34.8073 150.844 35.458C150.954 36.1088 150.932 36.7722 150.779 37.4483C150.625 38.1245 150.324 38.7777 149.876 39.4081L149.76 39.5711C149.312 40.2014 148.794 40.7001 148.206 41.0673C147.618 41.4345 146.999 41.673 146.348 41.783C145.697 41.893 145.028 41.8675 144.341 41.7063C143.662 41.5343 143.002 41.2204 142.361 40.7647L142.263 40.6951ZM143.324 39.3395C143.727 39.6254 144.141 39.8135 144.567 39.904C145.005 40.0021 145.432 40.0112 145.848 39.9312C146.273 39.8403 146.678 39.6619 147.063 39.396C147.448 39.13 147.792 38.7851 148.093 38.3613L148.186 38.2309C148.487 37.8071 148.7 37.3695 148.824 36.9181C148.949 36.4668 148.98 36.0312 148.919 35.6113C148.865 35.1805 148.72 34.7748 148.484 34.394C148.258 34.021 147.944 33.6916 147.542 33.4058L147.493 33.371C147.102 33.0929 146.688 32.9048 146.25 32.8066C145.824 32.7161 145.398 32.7164 144.974 32.8072C144.557 32.8872 144.156 33.0602 143.771 33.3262C143.386 33.5921 143.042 33.937 142.741 34.3608L142.648 34.4912C142.347 34.9151 142.134 35.3527 142.01 35.804C141.885 36.2553 141.85 36.6964 141.903 37.1272C141.965 37.5471 142.108 37.9435 142.334 38.3165C142.57 38.6973 142.884 39.0267 143.276 39.3048L143.324 39.3395Z" fill="#FEFEFE"/>
<path d="M155.508 40.0383L153.101 37.7511L154.286 36.5044L160.535 42.4427L159.35 43.6894L156.943 41.4023L150.963 47.6941L149.528 46.3301L155.508 40.0383Z" fill="#FEFEFE"/>
<path d="M162.614 44.6086L163.83 46.1461L158.182 50.6117L158.244 50.6901L167.291 50.5232L168.494 52.045L160.336 58.4953L159.12 56.9578L165.035 52.2814L164.985 52.2186L155.535 52.4238L154.456 51.0589L162.614 44.6086Z" fill="#FEFEFE"/>
</svg>
