<svg width="730" height="119" viewBox="0 0 730 119" fill="none" xmlns="http://www.w3.org/2000/svg">
<g clip-path="url(#clip0_344_2036)">
<path d="M221.351 62.0352C210.656 56.7185 200.564 51.6922 200.564 44.4097C200.564 37.1271 209.164 34.3348 216.561 34.3348C231.666 34.3348 232.936 40.411 232.936 46.0851C232.837 47.15 232.96 48.2241 233.298 49.2385C233.636 50.2529 234.182 51.1853 234.9 51.9762C235.619 52.767 236.494 53.3987 237.47 53.831C238.445 54.2633 239.5 54.4866 240.567 54.4866C241.634 54.4866 242.689 54.2633 243.665 53.831C244.64 53.3987 245.515 52.767 246.234 51.9762C246.952 51.1853 247.498 50.2529 247.836 49.2385C248.174 48.2241 248.297 47.15 248.198 46.0851C248.198 35.8985 235.788 29.2861 216.561 29.2861C189.268 29.2861 187.151 43.4491 187.151 47.7828C187.151 59.9353 200.363 66.57 213.129 72.9813C224.759 78.7894 235.721 84.2848 235.721 92.93C235.721 102.223 230.174 106.736 218.788 106.736C204.908 106.736 200.007 97.2862 200.007 89.1994C200.005 85.8315 200.816 82.5131 202.368 79.5266L203.95 76.5108H200.541C198.648 76.4977 196.771 76.8684 195.023 77.6006C193.276 78.3328 191.694 79.4114 190.373 80.7716C189.052 82.1319 188.018 83.7458 187.334 85.5165C186.65 87.2872 186.33 89.1782 186.394 91.0759C186.394 100.637 194.726 111.963 218.231 111.963C236.991 111.963 249.134 103.027 249.134 89.7579C249.134 75.863 234.362 68.5358 221.351 62.0352Z" fill="#2D2D2B"/>
<path d="M383.147 29.4207H382.233C379.808 29.4595 377.416 29.9992 375.208 31.0062C373 32.0133 371.023 33.4659 369.4 35.2736C367.634 37.138 366.066 39.1819 364.721 41.3721C362.209 45.5859 360.084 50.0198 358.372 54.6191L358.104 55.1553L355.653 60.3156V34.4247H353.938C353.941 35.3301 353.766 36.2272 353.422 37.0645C353.078 37.9019 352.573 38.663 351.936 39.3043C351.298 39.9456 350.541 40.4544 349.707 40.8016C348.873 41.1487 347.979 41.3274 347.076 41.3274H335.045V43.0475C335.963 43.0384 336.873 43.2141 337.722 43.5642C338.572 43.9143 339.342 44.4318 339.988 45.0858C340.634 45.7399 341.143 46.5173 341.484 47.3721C341.825 48.2269 341.992 49.1415 341.974 50.062V86.2289C340.196 89.6853 337.594 92.6474 334.398 94.8517C333.619 95.4549 332.794 96.0134 331.948 96.5719C331.101 97.1303 330.121 97.7111 329.163 98.2696L328.227 98.7611C323.878 101.127 319.263 102.964 314.48 104.234C311.199 105.15 307.815 105.646 304.41 105.709C303.14 105.709 301.937 105.709 300.756 105.709C296.005 105.532 291.335 104.424 287.009 102.447C284.122 101.08 281.561 99.107 279.501 96.6612C276.339 92.6716 274.28 87.9181 273.53 82.878C273.418 82.3195 273.329 81.7387 273.262 81.1579C277.718 81.1579 282.353 80.9569 287.009 80.6441C291.617 80.334 296.206 79.7822 300.756 78.991C305.441 78.2096 310.038 76.9675 314.48 75.2827C318.376 73.8424 321.999 71.7502 325.197 69.0948C326.301 68.1561 327.315 67.1166 328.227 65.9897C330.439 63.2731 331.968 60.0628 332.683 56.6297C332.683 56.1829 332.861 55.7584 332.928 55.3117C333.175 53.8354 333.294 52.3406 333.284 50.8439C333.296 48.4619 332.997 46.0886 332.393 43.7847C332.331 43.6092 332.279 43.4301 332.237 43.2486C332.059 42.6678 331.859 42.0869 331.636 41.5285C330.814 39.3902 329.631 37.4102 328.138 35.6756C324.512 31.674 319.687 28.9615 314.391 27.9464L313.411 27.7453C310.575 27.211 307.696 26.9493 304.811 26.9634C303.425 26.9652 302.041 27.0547 300.667 27.2315C299.62 27.3432 298.572 27.5219 297.503 27.7453C293.856 28.537 290.307 29.7281 286.92 31.2972C285.435 31.9674 283.987 32.712 282.575 33.5311C279.025 35.6611 275.848 38.3631 273.173 41.5285C269.972 45.1595 268.136 49.7975 267.982 54.6415C267.982 54.8649 267.982 55.0883 267.982 55.3117C268.062 57.7388 268.736 60.1091 269.943 62.2144C270.505 63.1898 271.178 64.0968 271.948 64.9174C272.323 65.3252 272.733 65.6989 273.173 66.0344C274.127 66.8162 275.248 67.3667 276.448 67.6428C277.991 67.9613 279.594 67.7915 281.036 67.1566C282.478 66.5218 283.687 65.4535 284.497 64.0993C285.307 62.7452 285.677 61.1721 285.556 59.5978C285.436 58.0235 284.83 56.5258 283.823 55.3117C283.6 55.0213 283.378 54.7532 283.11 54.4628C281.46 52.8001 280.309 50.7058 279.789 48.4187C279.269 46.1316 279.401 43.744 280.169 41.5285C281.134 39.236 282.958 37.4151 285.249 36.4575C285.784 36.2118 286.341 36.0107 286.92 35.7873C291.305 34.1187 295.981 33.3587 300.667 33.5534C301.424 33.5534 302.204 33.7098 302.895 33.8439C307.008 34.2689 310.943 35.7458 314.324 38.133C315.448 39.0734 316.386 40.2177 317.087 41.5061C318.639 44.7815 319.561 48.3207 319.805 51.9385C319.937 53.0502 319.982 54.1706 319.939 55.2893C319.865 57.4699 319.326 59.6093 318.357 61.5631C317.389 63.5169 316.013 65.2396 314.324 66.6152C313.235 67.5385 312.064 68.3609 310.826 69.0725C307.611 70.8532 304.172 72.1907 300.6 73.0488C296.082 74.1495 291.486 74.8964 286.853 75.2827C283.132 75.6178 279.122 75.8412 274.822 75.9083H267.938C267.035 75.9083 266.14 75.7295 265.306 75.3824C264.472 75.0352 263.715 74.5264 263.077 73.8851C262.44 73.2438 261.935 72.4827 261.591 71.6454C261.248 70.808 261.072 69.9109 261.075 69.0055H259.538V77.606C259.645 79.3492 259.883 81.0817 260.251 82.7886C261.132 87.7175 263.021 92.4103 265.799 96.5719C267.836 99.5448 270.368 102.144 273.285 104.256C277.378 107.139 281.984 109.209 286.853 110.355H287.031C291.541 111.398 296.15 111.944 300.778 111.986H302.204C306.336 111.963 310.456 111.529 314.503 110.69C315.149 110.69 315.795 110.422 316.441 110.288C320.496 109.358 324.451 108.034 328.249 106.334L329.586 105.709C331.508 104.793 333.362 103.74 335.134 102.559C337.21 101.205 339.124 99.6163 340.837 97.8228C341.238 97.3984 341.639 96.9516 341.996 96.5048V101.643C341.999 102.548 341.823 103.445 341.48 104.283C341.136 105.12 340.631 105.881 339.994 106.522C339.356 107.164 338.599 107.673 337.765 108.02C336.931 108.367 336.037 108.546 335.134 108.546V110.377H362.627V108.635C361.42 108.639 360.234 108.314 359.196 107.697L358.995 107.585C357.866 106.895 356.967 105.884 356.411 104.681C355.99 103.763 355.77 102.765 355.765 101.754C355.743 101.405 355.743 101.054 355.765 100.705V72.401L357.458 68.9608L361.446 60.3603C362.181 58.5061 363.184 56.6967 363.852 55.1776C365.334 51.5015 367.233 48.0085 369.511 44.7676C371.985 41.5732 373.544 41.5731 374.547 41.5731C375.749 41.5784 376.912 41.9962 377.844 42.7571C379.429 43.9089 381.305 44.5902 383.258 44.723H384.038C385.054 44.7437 386.064 44.5618 387.009 44.1877C387.954 43.8136 388.815 43.2548 389.543 42.5439C390.27 41.8329 390.85 40.9841 391.247 40.0466C391.645 39.1091 391.853 38.1017 391.858 37.083C391.747 33.5088 389.474 29.7558 383.147 29.4207Z" fill="#2D2D2B"/>
<path d="M171.823 101.642V60.8511C171.823 59.0817 171.718 57.3139 171.511 55.5568C171.042 50.6329 169.374 45.8999 166.654 41.7736C164.42 38.5684 161.487 35.9171 158.076 34.022C153.809 31.7483 149.138 30.3366 144.329 29.8669C142.147 29.6198 139.953 29.5005 137.757 29.5095C135.361 29.4986 132.966 29.618 130.582 29.8669C125.815 30.2491 121.157 31.4981 116.836 33.5528C113.209 35.174 110.328 38.1108 108.771 41.7736C108.237 43.2023 107.965 44.7158 107.968 46.2414C107.869 47.3063 107.992 48.3804 108.33 49.3948C108.669 50.4092 109.214 51.3416 109.933 52.1324C110.651 52.9232 111.526 53.555 112.502 53.9873C113.478 54.4196 114.533 54.6429 115.599 54.6429C116.666 54.6429 117.721 54.4196 118.697 53.9873C119.673 53.555 120.548 52.9232 121.266 52.1324C121.984 51.3416 122.53 50.4092 122.868 49.3948C123.206 48.3804 123.33 47.3063 123.23 46.2414C123.211 44.7239 123.444 43.2139 123.921 41.7736C124.448 40.2744 125.333 38.9272 126.498 37.8488C127.663 36.7704 129.072 35.9935 130.605 35.5857C133.111 34.8311 135.72 34.4768 138.336 34.5357C140.35 34.5258 142.361 34.6752 144.351 34.9825C146.598 35.1628 148.772 35.8616 150.705 37.0241C152.637 38.1867 154.276 39.7816 155.491 41.6842C157.386 45.4102 158.27 49.5705 158.054 53.7473V57.2098C153.598 57.2098 148.941 57.3662 144.307 57.7013C139.699 58.0088 135.11 58.5606 130.56 59.3544C125.866 60.1504 121.262 61.4074 116.814 63.1073C112.954 64.5603 109.357 66.6353 106.164 69.2506C105.049 70.2078 104.014 71.2537 103.067 72.3781C100.507 75.4261 98.8071 79.1051 98.143 83.0338C97.8421 84.677 97.693 86.3447 97.6974 88.0154C97.6371 91.0627 98.12 94.0963 99.1233 96.9733C99.9767 99.4399 101.301 101.716 103.022 103.675C106.318 107.251 110.611 109.749 115.343 110.846L116.769 111.203C119.853 111.853 122.998 112.167 126.149 112.142C127.552 112.142 129.001 112.142 130.605 111.94C132.688 111.742 134.752 111.376 136.776 110.846C139.404 110.174 141.946 109.199 144.351 107.942C149.297 105.319 153.58 101.598 156.873 97.0627C157.274 96.5042 157.697 95.9457 158.098 95.3426V103.541C158.098 105.366 158.821 107.116 160.108 108.406C161.395 109.697 163.14 110.421 164.96 110.421H178.707V108.701C177.789 108.705 176.879 108.523 176.032 108.168C175.185 107.812 174.418 107.29 173.776 106.631C173.134 105.973 172.63 105.192 172.295 104.335C171.959 103.478 171.799 102.563 171.823 101.642ZM148.295 96.9733C147.037 97.9581 145.712 98.8538 144.329 99.654C140.135 102.099 135.426 103.522 130.582 103.809H129.379C124.89 103.95 120.48 102.599 116.836 99.9667C115.73 99.1143 114.761 98.0973 113.962 96.951C112 94.0262 111.01 90.5549 111.132 87.0325C111.132 85.7379 111.236 84.4455 111.444 83.1678C112.053 79.2241 113.949 75.5942 116.836 72.8472C118.229 71.5111 119.777 70.3485 121.448 69.3846C124.33 67.7795 127.398 66.5342 130.582 65.6764C135.085 64.4556 139.684 63.626 144.329 63.1967C148.496 62.7723 153.063 62.5489 158.076 62.5042V84.8432C155.782 89.582 152.436 93.7313 148.295 96.9733Z" fill="#2D2D2B"/>
<path d="M74.0583 93.4665C74.0583 101.084 69.2013 105.038 59.6432 105.217H20.6089V8.62287C20.6089 7.71743 20.7871 6.82093 21.1334 5.9847C21.4796 5.14847 21.9871 4.38897 22.6267 3.74977C23.2662 3.11057 24.0253 2.60423 24.8605 2.25977C25.6956 1.91532 26.5904 1.7395 27.4934 1.74244V0H0V1.74244C1.81997 1.74244 3.56539 2.46735 4.8523 3.75768C6.13922 5.04801 6.86221 6.79806 6.86221 8.62287V101.643C6.86514 102.548 6.68982 103.445 6.34628 104.282C6.00273 105.12 5.49773 105.881 4.86023 106.522C4.22272 107.163 3.46523 107.672 2.63122 108.019C1.7972 108.367 0.903035 108.545 0 108.545V110.377H59.6655C77.9796 110.377 89.3423 103.921 89.3423 93.5782C89.43 92.5236 89.2996 91.4622 88.9591 90.4605C88.6186 89.4588 88.0754 88.5384 87.3636 87.757C86.6518 86.9756 85.7867 86.3501 84.8225 85.9195C83.8583 85.489 82.8158 85.2628 81.7604 85.2551C80.705 85.2474 79.6593 85.4583 78.689 85.8747C77.7186 86.2911 76.8445 86.9039 76.1215 87.6749C75.3984 88.4458 74.8419 89.3581 74.4868 90.3547C74.1318 91.3513 73.9859 92.4107 74.0583 93.4665Z" fill="#2D2D2B"/>
<path d="M729.064 107.607C725.232 99.1628 714.359 97.3981 700.1 102.625L699.811 102.737L697.828 103.519C691.769 105.734 685.333 106.729 678.89 106.445C677.642 106.445 676.417 106.445 675.236 106.334C670.484 106.166 665.812 105.057 661.489 103.072C658.614 101.697 656.062 99.7246 654.003 97.2864C650.835 93.3007 648.775 88.5453 648.032 83.5032C647.921 82.9447 647.832 82.3639 647.743 81.7831C652.199 81.7831 656.833 81.6044 661.489 81.2693C666.096 80.9581 670.684 80.4138 675.236 79.6385C679.926 78.8466 684.529 77.6048 688.983 75.9303C692.879 74.4824 696.503 72.3825 699.699 69.72C700.797 68.7832 701.811 67.7516 702.729 66.6372C704.942 63.9123 706.47 60.6947 707.185 57.2548C707.185 56.8304 707.364 56.3836 707.43 55.9368C707.667 54.4594 707.786 52.9654 707.787 51.469C707.803 49.0854 707.495 46.7106 706.873 44.4099L706.74 43.8737C706.562 43.2929 706.361 42.7121 706.138 42.1537C705.308 40.0265 704.125 38.0553 702.64 36.3232C699.02 32.3138 694.193 29.5997 688.894 28.5939L687.891 28.3704C685.056 27.8342 682.176 27.5724 679.291 27.5886C677.905 27.5917 676.521 27.6813 675.147 27.8567C674.122 27.9907 673.075 28.1471 672.005 28.3704C668.348 29.1599 664.791 30.3588 661.4 31.9447C659.974 32.5925 658.526 33.3297 657.078 34.1786C653.526 36.3158 650.343 39.0167 647.654 42.176C644.47 45.8161 642.643 50.4501 642.485 55.289V55.9592C642.583 58.3864 643.263 60.7541 644.467 62.8619C645.03 63.8373 645.703 64.7444 646.473 65.565C646.846 65.9734 647.248 66.3542 647.676 66.7042C648.638 67.4864 649.766 68.0367 650.973 68.3126C652.516 68.6227 654.117 68.4463 655.556 67.8075C656.994 67.1688 658.201 66.0992 659.009 64.7454C659.817 63.3917 660.187 61.8204 660.069 60.2472C659.95 58.674 659.349 57.176 658.348 55.9592L657.635 55.1326C655.98 53.468 654.827 51.3697 654.307 49.0782C653.787 46.7867 653.921 44.3946 654.694 42.176C655.665 39.8876 657.487 38.0686 659.774 37.105L661.422 36.4348C665.805 34.7589 670.483 33.9987 675.169 34.2009C675.916 34.2462 676.66 34.3357 677.397 34.469C682.7 35.4296 686.309 36.7029 688.849 38.7581C689.961 39.7042 690.89 40.8477 691.589 42.1313C693.157 45.41 694.087 48.9582 694.33 52.586C694.462 53.6902 694.506 54.8032 694.464 55.9145C694.387 58.0945 693.846 60.2329 692.878 62.1862C691.91 64.1396 690.536 65.8629 688.849 67.2404C687.765 68.1708 686.593 68.9937 685.351 69.6977C682.133 71.4883 678.684 72.8264 675.102 73.674C670.59 74.7982 665.992 75.5454 661.356 75.9079C657.657 76.2654 653.647 76.4664 649.347 76.5558H642.462C640.642 76.5558 638.897 75.8308 637.61 74.5405C636.323 73.2502 635.6 71.5001 635.6 69.6753H633.862V78.2982C633.978 80.0344 634.223 81.7594 634.598 83.4585C635.475 88.3884 637.364 93.0819 640.145 97.2417C642.168 100.219 644.694 102.82 647.609 104.926C651.708 107.814 656.321 109.884 661.2 111.025H661.356C665.861 112.094 670.472 112.656 675.102 112.7H676.528C680.667 112.666 684.793 112.233 688.849 111.405L690.765 110.98C692.883 110.484 694.973 109.872 697.026 109.148C705.782 105.328 711.864 106.914 715.028 113.862C715.437 114.786 716.025 115.62 716.756 116.317C717.487 117.013 718.348 117.559 719.289 117.922C720.23 118.285 721.234 118.458 722.242 118.432C723.25 118.407 724.244 118.182 725.165 117.771C726.087 117.361 726.919 116.772 727.614 116.039C728.308 115.306 728.852 114.443 729.214 113.499C729.576 112.555 729.749 111.549 729.724 110.538C729.698 109.527 729.474 108.531 729.064 107.607Z" fill="#2D2D2B"/>
<path d="M494.836 0V13.7832H489.689V12.0854C489.694 11.2031 489.52 10.329 489.177 9.51645C488.668 8.24037 487.788 7.14706 486.652 6.37829C485.516 5.60952 484.175 5.20074 482.805 5.205H444.929V101.665C444.926 102.57 445.101 103.467 445.445 104.305C445.788 105.142 446.293 105.903 446.931 106.545C447.568 107.186 448.326 107.695 449.16 108.042C449.994 108.389 450.888 108.568 451.791 108.568V110.377H424.409V108.657C426.235 108.657 427.986 107.93 429.277 106.635C430.568 105.341 431.294 103.585 431.294 101.754V5.18267H393.418C391.594 5.18856 389.846 5.91768 388.556 7.21093C387.266 8.50417 386.539 10.2565 386.533 12.0854V13.8055H381.387V0.0223608L494.836 0Z" fill="#2D2D2B"/>
<path d="M506.844 27.5668C506.844 29.3975 506.119 31.1533 504.828 32.4478C503.537 33.7423 501.786 34.4696 499.96 34.4696C498.704 34.4726 497.471 34.1313 496.395 33.4824C495.319 32.8335 494.44 31.9018 493.854 30.7882C493.268 29.6745 492.997 28.4214 493.07 27.1644C493.144 25.9074 493.558 24.6944 494.27 23.6568C494.981 22.6191 495.962 21.7963 497.106 21.2774C498.25 20.7585 499.514 20.5634 500.761 20.713C502.008 20.8626 503.19 21.3513 504.18 22.1263C505.17 22.9012 505.93 23.9328 506.377 25.1095C506.692 25.8899 506.851 26.7248 506.844 27.5668Z" fill="#2D2D2B"/>
<path d="M628.849 108.523V110.377H601.356V108.635C603.182 108.635 604.933 107.907 606.224 106.613C607.515 105.318 608.241 103.563 608.241 101.732V53.4126C608.408 50.9805 608.408 48.5398 608.241 46.1077C608.198 45.142 607.917 44.202 607.423 43.3717C606.929 42.5414 606.238 41.8467 605.411 41.3495C604.301 40.8118 603.078 40.5512 601.846 40.59C600.329 40.5851 598.821 40.842 597.39 41.3495C596.387 41.7186 595.424 42.1902 594.516 42.7569C590.795 44.9908 587.03 49.0788 582.129 55.1327L580.769 56.8305C578.943 59.0644 576.982 61.6557 574.821 64.4257L571.189 68.8935L567.001 74.0985V101.62C566.998 102.526 567.173 103.423 567.516 104.26C567.86 105.097 568.365 105.859 569.003 106.5C569.64 107.141 570.398 107.65 571.232 107.997C572.066 108.344 572.96 108.523 573.863 108.523V110.377H546.392V108.635C547.295 108.635 548.189 108.456 549.023 108.109C549.857 107.762 550.614 107.253 551.252 106.612C551.889 105.97 552.394 105.209 552.738 104.372C553.081 103.534 553.257 102.637 553.254 101.732V53.4126C553.421 50.9805 553.421 48.5398 553.254 46.1077C553.213 45.1441 552.936 44.2055 552.446 43.3753C551.956 42.5452 551.269 41.8493 550.447 41.3495C549.328 40.8141 548.098 40.5537 546.86 40.59C545.341 40.5806 543.833 40.8376 542.404 41.3495C541.391 41.7134 540.42 42.1852 539.507 42.7569C535.786 44.9908 532.021 49.0788 527.12 55.1327L525.76 56.8305C523.956 59.0644 521.973 61.6557 519.812 64.4257L516.18 68.8935L512.014 74.0762V101.598C512.002 101.747 512.002 101.896 512.014 102.045C512.122 103.795 512.892 105.438 514.167 106.638C515.443 107.838 517.127 108.504 518.876 108.501V110.377H491.405V108.635C493.09 108.635 494.716 108.013 495.973 106.888C497.23 105.764 498.031 104.215 498.223 102.536C498.245 102.269 498.245 102 498.223 101.732V50.0617C498.226 48.7967 497.88 47.5554 497.223 46.4751C496.567 45.3949 495.625 44.5177 494.502 43.9408C493.534 43.4261 492.456 43.1576 491.36 43.159V41.4389H503.392C504.293 41.4389 505.185 41.2609 506.018 40.9151C506.85 40.5694 507.607 40.0625 508.244 39.4236C508.881 38.7847 509.387 38.0262 509.731 37.1915C510.076 36.3567 510.254 35.462 510.254 34.5584H511.969V67.2851L520.48 55.222L521.683 53.5243L525.716 48.297C527.699 45.7727 529.57 43.4717 531.464 41.4389C533.8 38.792 536.492 36.4839 539.463 34.5808C543.175 32.2816 547.465 31.0956 551.828 31.1629C552.274 31.1629 552.719 31.1629 553.209 31.1629C557.197 31.431 562.701 33.1287 565.374 41.3942C566.518 45.3095 567.052 49.3786 566.956 53.4573V67.2405L575.467 55.1774L576.67 53.4796L580.703 48.2523C582.686 45.728 584.557 43.427 586.429 41.3942C588.777 38.7519 591.476 36.4444 594.449 34.5361C598.16 32.2335 602.452 31.0472 606.815 31.1182C607.26 31.1182 607.706 31.1182 608.196 31.1182C612.184 31.3863 617.687 33.0841 620.361 41.3495C621.505 45.2649 622.038 49.3339 621.943 53.4126V101.62C621.94 102.529 622.117 103.43 622.463 104.27C622.809 105.111 623.318 105.874 623.96 106.516C624.603 107.158 625.365 107.665 626.205 108.01C627.044 108.355 627.943 108.529 628.849 108.523Z" fill="#2D2D2B"/>
</g>
<defs>
<clipPath id="clip0_344_2036">
<rect width="730" height="119" fill="white"/>
</clipPath>
</defs>
</svg>
