<svg width="330" height="195" viewBox="0 0 330 195" fill="none" xmlns="http://www.w3.org/2000/svg">
<g clip-path="url(#clip0_8_295)">
<path d="M93.4295 107.083C89.6022 102.747 84.6138 99.3616 78.603 97.0143C72.6118 94.697 66.4283 92.912 60.1241 91.6799C53.8298 90.4368 47.7857 89.1002 42.1519 87.7063C36.7503 86.3727 32.3108 84.5745 28.957 82.3599C26.0345 80.4379 24.611 77.7255 24.611 74.0717C24.611 70.6894 24.611 60.3978 48.9981 60.3978C57.8168 60.3978 64.1534 61.9366 67.8209 64.9658C71.4883 67.9951 73.5512 71.5222 74.076 75.6919L74.3323 77.7194H96.0684L95.791 75.1578C95.1334 69.2824 93.0344 63.6606 89.6806 58.7927C86.2424 53.7389 81.1785 49.5511 74.6248 46.3499C68.0711 43.1486 59.6355 41.5586 49.4475 41.5586C34.4702 41.5586 22.928 44.5185 15.1318 50.3567C7.13943 56.3397 3.089 64.8391 3.089 75.6285C3.089 83.0025 5.10672 88.9403 9.08479 93.279C12.9121 97.4608 17.9004 100.728 23.9083 102.994C29.9058 105.236 36.0664 107.014 42.3359 108.314C48.6061 109.626 54.6621 111.005 60.3322 112.402C65.7127 113.735 70.1341 115.597 73.4728 117.932C76.4345 120.008 77.873 122.877 77.873 126.703C77.873 129.856 77.0346 132.336 75.3095 134.282C73.4426 136.379 71.0956 137.992 68.4693 138.983C65.5668 140.101 62.5433 140.875 59.4606 141.288C56.8132 141.676 54.1435 141.892 51.4683 141.934C44.6642 141.934 39.1027 140.926 34.9678 138.944C30.9023 137.004 27.8682 134.457 25.9471 131.374C24.0377 128.402 22.809 125.044 22.349 121.541L22.1017 119.504H0.00366211L0.175593 121.972C0.647761 128.861 2.95204 135.499 6.84991 141.198C10.8099 147.075 16.6006 151.863 24.0591 155.433C31.4603 158.975 40.6077 160.773 51.2421 160.773C65.589 160.773 77.2578 157.756 85.9258 151.809C94.8651 145.681 99.3981 136.723 99.3981 125.149C99.3951 117.652 97.3864 111.572 93.4295 107.083Z" fill="#FEFEFE"/>
<path d="M142.388 0H120.024V159.663H142.388V0Z" fill="#FEFEFE"/>
<path d="M308.574 0V57.9298C304.894 53.9683 300.577 50.6517 295.801 48.1179C288.865 44.4098 280.474 42.5271 270.886 42.5271C259.61 42.5271 249.6 45.2184 241.137 50.5256C232.74 55.7707 225.924 63.1989 221.418 72.0169C216.798 80.9448 214.458 91.0252 214.458 101.974C214.458 112.779 216.798 122.82 221.415 131.814C225.894 140.685 232.714 148.16 241.137 153.429C249.6 158.74 259.61 161.431 270.886 161.431C280.474 161.431 288.856 159.548 295.801 155.837C300.558 153.319 304.872 150.042 308.574 146.134V159.657H330.002V0H308.574ZM309.479 101.947C309.479 109.104 308.046 115.826 305.22 121.915C302.555 127.778 298.307 132.781 292.954 136.361C287.637 139.921 280.969 141.726 273.13 141.726C265.427 141.726 258.708 139.915 253.162 136.34C247.634 132.8 243.199 127.792 240.353 121.876C237.363 115.667 235.836 108.854 235.889 101.962C235.889 94.6759 237.397 87.9356 240.347 81.9344C243.219 76.0607 247.653 71.0918 253.162 67.5726C258.714 63.9973 265.43 62.184 273.13 62.184C280.972 62.184 287.634 63.9943 292.954 67.5485C298.286 71.108 302.532 76.0717 305.223 81.8922C308.04 87.8963 309.47 94.6457 309.47 101.947H309.479Z" fill="#FEFEFE"/>
<path d="M193.279 43.9238H170.916V159.663H193.279V43.9238Z" fill="#FEFEFE"/>
<path d="M182.099 195C188.96 195 194.522 189.44 194.522 182.581C194.522 175.723 188.96 170.163 182.099 170.163C175.238 170.163 169.676 175.723 169.676 182.581C169.676 189.44 175.238 195 182.099 195Z" fill="#FEFEFE"/>
</g>
<defs>
<clipPath id="clip0_8_295">
<rect width="330" height="195" fill="white"/>
</clipPath>
</defs>
</svg>
