<svg width="364" height="215" viewBox="0 0 364 215" fill="none" xmlns="http://www.w3.org/2000/svg">
<g clip-path="url(#clip0_34_179)">
<path d="M103.012 118.065C98.7925 113.285 93.2925 109.552 86.6652 106.964C80.0595 104.409 73.2418 102.441 66.291 101.083C59.3511 99.7122 52.6872 98.2385 46.4755 96.7016C40.5199 95.2312 35.625 93.2486 31.9273 90.8068C28.7051 88.6877 27.1356 85.6971 27.1356 81.6685C27.1356 77.9394 27.1355 66.5923 54.0239 66.5923C63.7471 66.5923 70.7336 68.2889 74.7772 71.6288C78.8208 74.9687 81.0953 78.8575 81.6739 83.4549L81.9565 85.6905H105.922L105.616 82.8661C104.891 76.3881 102.577 70.1897 98.879 64.8225C95.0881 59.2504 89.5049 54.633 82.279 51.1035C75.0531 47.5739 65.7523 45.8208 54.5194 45.8208C38.0059 45.8208 25.28 49.0842 16.6841 55.5213C7.87203 62.118 3.40617 71.4891 3.40617 83.3851C3.40617 91.5154 5.63084 98.0622 10.0169 102.846C14.2367 107.457 19.7367 111.059 26.3608 113.558C32.9734 116.029 39.7659 117.99 46.6784 119.422C53.5917 120.87 60.2689 122.39 66.5204 123.93C72.4528 125.4 77.3277 127.453 81.0088 130.028C84.2743 132.316 85.8604 135.48 85.8604 139.698C85.8604 143.175 84.9359 145.909 83.0339 148.055C80.9756 150.367 78.3878 152.145 75.4921 153.238C72.292 154.471 68.9583 155.324 65.5595 155.779C62.6406 156.207 59.6971 156.445 56.7474 156.491C49.2455 156.491 43.1136 155.38 38.5546 153.194C34.0721 151.055 30.7269 148.248 28.6087 144.848C26.5034 141.571 25.1488 137.869 24.6416 134.006L24.3689 131.761H0.00439453L0.19396 134.482C0.714555 142.078 3.25517 149.396 7.55282 155.679C11.9189 162.16 18.3035 167.439 26.527 171.374C34.6873 175.28 44.773 177.263 56.498 177.263C72.3165 177.263 85.1821 173.936 94.739 167.379C104.595 160.623 109.593 150.746 109.593 137.985C109.59 129.718 107.375 123.015 103.012 118.065Z" fill="#FEFEFE"/>
<path d="M156.992 0H132.334V176.039H156.992V0Z" fill="#FEFEFE"/>
<path d="M340.223 0V63.8713C336.165 59.5035 331.405 55.8468 326.14 53.0531C318.492 48.9646 309.241 46.8888 298.669 46.8888C286.236 46.8888 275.2 49.8562 265.869 55.7077C256.61 61.4908 249.096 69.6808 244.128 79.4033C239.034 89.2468 236.453 100.361 236.453 112.433C236.453 124.346 239.034 135.417 244.125 145.334C249.062 155.114 256.582 163.356 265.869 169.166C275.2 175.021 286.236 177.988 298.669 177.988C309.241 177.988 318.482 175.912 326.14 171.82C331.385 169.044 336.141 165.431 340.223 161.122V176.032H363.849V0H340.223ZM341.22 112.403C341.22 120.294 339.641 127.706 336.525 134.419C333.586 140.884 328.903 146.4 323.001 150.347C317.138 154.272 309.786 156.262 301.144 156.262C292.651 156.262 285.242 154.266 279.127 150.324C273.032 146.421 268.142 140.899 265.004 134.376C261.708 127.53 260.024 120.019 260.083 112.42C260.083 104.386 261.745 96.9546 264.997 90.3379C268.164 83.8618 273.053 78.3833 279.127 74.5032C285.249 70.5611 292.654 68.5618 301.144 68.5618C309.789 68.5618 317.135 70.5578 323.001 74.4766C328.88 78.4011 333.561 83.8739 336.528 90.2913C339.634 96.9113 341.21 104.353 341.21 112.403H341.22Z" fill="#FEFEFE"/>
<path d="M213.103 48.4287H188.446V176.038H213.103V48.4287Z" fill="#FEFEFE"/>
<path d="M200.776 215C208.341 215 214.473 208.87 214.473 201.308C214.473 193.746 208.341 187.615 200.776 187.615C193.211 187.615 187.079 193.746 187.079 201.308C187.079 208.87 193.211 215 200.776 215Z" fill="#FEFEFE"/>
</g>
<defs>
<clipPath id="clip0_34_179">
<rect width="363.846" height="215" fill="white"/>
</clipPath>
</defs>
</svg>
