<svg width="99" height="58" viewBox="0 0 99 58" fill="none" xmlns="http://www.w3.org/2000/svg">
<g clip-path="url(#clip0_47_767)">
<path d="M28.6353 31.8503C27.497 30.5607 26.0133 29.5538 24.2254 28.8556C22.4434 28.1664 20.6042 27.6354 18.7291 27.269C16.857 26.8992 15.0593 26.5017 13.3836 26.0871C11.7769 25.6904 10.4565 25.1555 9.45893 24.4968C8.58968 23.9252 8.16628 23.1184 8.16628 22.0316C8.16628 21.0256 8.16626 17.9646 15.4199 17.9646C18.0429 17.9646 19.9276 18.4222 21.0184 19.3232C22.1093 20.2242 22.7228 21.2733 22.8789 22.5136L22.9552 23.1166H29.4203L29.3378 22.3547C29.1422 20.6071 28.5178 18.935 27.5203 17.4871C26.4977 15.984 24.9915 14.7383 23.0422 13.7862C21.0929 12.834 18.5838 12.3611 15.5535 12.3611C11.0987 12.3611 7.6657 13.2415 5.34681 14.978C2.9696 16.7575 1.76486 19.2855 1.76486 22.4947C1.76486 24.688 2.365 26.4541 3.54822 27.7446C4.68659 28.9884 6.17031 29.9603 7.95725 30.6343C9.74114 31.3011 11.5735 31.83 13.4383 32.2164C15.3033 32.6068 17.1046 33.0169 18.791 33.4324C20.3914 33.8291 21.7065 34.3828 22.6995 35.0774C23.5804 35.6948 24.0083 36.5482 24.0083 37.6862C24.0083 38.624 23.7589 39.3616 23.2458 39.9405C22.6906 40.5642 21.9925 41.0439 21.2113 41.3386C20.348 41.6712 19.4487 41.9014 18.5318 42.0243C17.7444 42.1397 16.9503 42.2038 16.1546 42.2163C14.1308 42.2163 12.4766 41.9166 11.2468 41.327C10.0375 40.7499 9.13509 39.9925 8.56367 39.0754C7.99575 38.1913 7.6303 37.1926 7.49348 36.1507L7.41992 35.5449H0.847168L0.898306 36.279C1.03875 38.3281 1.72412 40.3023 2.88349 41.9974C4.06132 43.7455 5.78368 45.1697 8.00211 46.2314C10.2035 47.2849 12.9243 47.8198 16.0873 47.8198C20.3546 47.8198 23.8253 46.9224 26.4035 45.1536C29.0624 43.3309 30.4106 40.6665 30.4106 37.224C30.4097 34.9939 29.8123 33.1856 28.6353 31.8503Z" fill="#FEFEFE"/>
<path d="M43.1973 0H36.5457V47.4895H43.1973V0Z" fill="#FEFEFE"/>
<path d="M92.6274 0V17.2304C91.5329 16.0521 90.2488 15.0656 88.8283 14.312C86.7651 13.2091 84.2695 12.6491 81.4177 12.6491C78.0636 12.6491 75.0863 13.4496 72.5692 15.0281C70.0716 16.5882 68.0444 18.7976 66.7042 21.4204C65.3299 24.0759 64.6338 27.0741 64.6338 30.3309C64.6338 33.5445 65.3299 36.5311 66.7033 39.2063C68.0353 41.8448 70.0639 44.0682 72.5692 45.6354C75.0863 47.2148 78.0636 48.0153 81.4177 48.0153C84.2695 48.0153 86.7624 47.4554 88.8283 46.3515C90.2432 45.6027 91.5264 44.6278 92.6274 43.4655V47.4877H99.001V0H92.6274ZM92.8965 30.3228C92.8965 32.4515 92.4704 34.4509 91.6299 36.2619C90.8371 38.0059 89.5736 39.494 87.9815 40.5587C86.4 41.6177 84.4166 42.1543 82.0852 42.1543C79.7941 42.1543 77.7954 41.6159 76.1457 40.5524C74.5015 39.4996 73.1824 38.01 72.3359 36.2502C71.4466 34.4034 70.9924 32.3772 71.0083 30.3273C71.0083 28.16 71.4568 26.1552 72.3341 24.3702C73.1884 22.6232 74.5072 21.1453 76.1457 20.0985C77.7972 19.0351 79.795 18.4957 82.0852 18.4957C84.4175 18.4957 86.3991 19.0342 87.9815 20.0914C89.5675 21.1501 90.8304 22.6265 91.6308 24.3577C92.4686 26.1435 92.8938 28.151 92.8938 30.3228H92.8965Z" fill="#FEFEFE"/>
<path d="M58.3345 13.0647H51.6829V47.4896H58.3345V13.0647Z" fill="#FEFEFE"/>
<path d="M55.0089 57.9998C57.0496 57.9998 58.7039 56.3461 58.7039 54.3061C58.7039 52.2661 57.0496 50.6123 55.0089 50.6123C52.9683 50.6123 51.314 52.2661 51.314 54.3061C51.314 56.3461 52.9683 57.9998 55.0089 57.9998Z" fill="#FEFEFE"/>
</g>
<defs>
<clipPath id="clip0_47_767">
<rect width="98.1538" height="58" fill="white" transform="translate(0.846191)"/>
</clipPath>
</defs>
</svg>
